<?xml version="1.0" encoding="UTF-8"?>
<svg id="Layer_1" data-name="Layer 1" xmlns="http://www.w3.org/2000/svg" width="800.08" height="410" viewBox="0 0 800.08 410">
  <defs>
    <style>
      .cls-1 {
        fill: #0a3235;
      }

      .cls-2 {
        fill: #faf2e9;
      }

      .cls-3 {
        fill: #0fcb8c;
      }

      .cls-4 {
        fill: #1bce92;
      }

      .cls-5 {
        fill: #163c3f;
      }
    </style>
  </defs>
  <polygon class="cls-1" points="0 0 0 410 800.08 410 800.08 0 0 0 0 0"/>
  <path class="cls-3" d="M688.57,91.25h-1v-6h1v6ZM496.57,91.25h-1v-6h1v6ZM304.57,91.25h-1v-6h1v6ZM112.57,91.25h-1v-6h1v6ZM688.57,85.25h-1c0-3.03-2.47-5.5-5.5-5.5h-188.54c1.82,1.15,3.04,3.19,3.04,5.5h-1c0-3.03-2.47-5.5-5.5-5.5h-84c-2.7,0-5.02-1.65-6-4-.98,2.35-3.3,4-6,4h-84c-3.03,0-5.5,2.47-5.5,5.5h-1c0-2.31,1.21-4.35,3.04-5.5H118.07v-1h276c3.03,0,5.5-2.47,5.5-5.5v-6h1v6c0,3.03,2.47,5.5,5.5,5.5h276c3.58,0,6.5,2.92,6.5,6.5ZM112.57,85.25h-1c0-3.58,2.92-6.5,6.5-6.5v1c-3.03,0-5.5,2.47-5.5,5.5Z"/>
  <path class="cls-5" d="M28.08,91.25c-3.31,0-6,2.69-6,6v48c0,3.31,2.69,6,6,6h168c3.31,0,6-2.69,6-6v-48c0-3.31-2.69-6-6-6H28.08Z"/>
  <path class="cls-3" d="M81.19,117.11v-9.72h1.41v8.39h4.4v1.33h-5.81Z"/>
  <path class="cls-3" d="M88.29,108.62v-1.37h1.41v1.37h-1.41ZM88.29,117.11v-7.29h1.41v7.29h-1.41Z"/>
  <path class="cls-3" d="M90.91,110.95v-1.13h4.98v1.13h-4.98ZM95.89,117.11c-.46.09-.91.13-1.35.11-.44-.01-.83-.1-1.18-.26-.35-.16-.61-.41-.78-.74-.16-.3-.24-.61-.25-.92-.01-.31-.02-.67-.02-1.06v-6.45h1.42v6.38c0,.29,0,.55.01.76,0,.22.05.4.14.55.16.28.42.44.77.48.35.04.77.02,1.25-.04v1.19Z"/>
  <path class="cls-3" d="M100.32,117.31c-.72,0-1.36-.16-1.91-.48s-.97-.76-1.28-1.33-.46-1.23-.46-1.98c0-.8.15-1.49.45-2.07.3-.58.72-1.04,1.25-1.36.54-.32,1.16-.48,1.87-.48s1.37.17,1.9.52.91.83,1.17,1.47c.26.63.36,1.39.31,2.26h-1.41v-.51c0-.85-.17-1.47-.48-1.88-.31-.4-.79-.61-1.43-.61-.71,0-1.24.22-1.59.67-.36.45-.53,1.09-.53,1.93s.18,1.42.53,1.86c.36.44.87.66,1.54.66.44,0,.82-.1,1.14-.3s.57-.49.75-.86l1.38.44c-.28.65-.71,1.16-1.29,1.52-.58.36-1.22.54-1.92.54ZM97.72,113.86v-1.1h5.2v1.1h-5.2Z"/>
  <path class="cls-3" d="M105.14,117.11v-7.29h1.26v1.77l-.18-.23c.09-.23.21-.45.35-.64s.31-.36.5-.48c.18-.13.39-.24.62-.31.23-.07.46-.12.7-.14.24-.02.47,0,.69.04v1.32c-.24-.06-.5-.08-.79-.05-.29.03-.56.12-.8.28-.23.15-.41.33-.54.54-.13.21-.23.45-.29.71s-.09.53-.09.82v3.68h-1.42Z"/>
  <path class="cls-3" d="M112.22,117.31c-.54,0-.99-.1-1.36-.3-.36-.2-.64-.47-.83-.8-.19-.33-.28-.69-.28-1.09,0-.37.06-.69.2-.97.13-.28.32-.52.58-.71.26-.2.57-.35.94-.48.32-.09.69-.18,1.1-.25.41-.07.84-.14,1.29-.2.45-.06.9-.13,1.35-.19l-.51.28c0-.57-.11-1-.36-1.27-.25-.28-.68-.42-1.29-.42-.38,0-.73.09-1.05.27-.32.18-.54.47-.67.88l-1.32-.4c.18-.63.52-1.12,1.03-1.49s1.18-.55,2.02-.55c.65,0,1.22.11,1.7.33.48.22.84.57,1.06,1.06.12.24.19.49.22.76.03.27.04.55.04.86v4.49h-1.25v-1.67l.24.22c-.3.56-.69.97-1.15,1.25-.47.27-1.04.41-1.72.41ZM112.47,116.16c.4,0,.74-.07,1.03-.21.29-.14.52-.32.7-.54.18-.22.29-.45.34-.69.08-.22.12-.46.13-.73.01-.27.02-.49.02-.65l.46.17c-.45.07-.85.13-1.21.18-.36.05-.69.11-.99.16-.29.05-.56.11-.79.19-.19.07-.37.15-.52.24-.15.09-.27.21-.36.34-.09.13-.13.3-.13.49s.05.36.14.52c.09.16.24.29.43.38.19.09.44.14.74.14Z"/>
  <path class="cls-3" d="M117.04,110.95v-1.13h4.98v1.13h-4.98ZM122.02,117.11c-.46.09-.91.13-1.35.11-.44-.01-.83-.1-1.18-.26-.35-.16-.61-.41-.78-.74-.16-.3-.24-.61-.25-.92-.01-.31-.02-.67-.02-1.06v-6.45h1.42v6.38c0,.29,0,.55.01.76,0,.22.05.4.14.55.16.28.42.44.77.48.35.04.77.02,1.25-.04v1.19Z"/>
  <path class="cls-3" d="M126.3,117.31c-.5,0-.93-.08-1.27-.24-.34-.16-.62-.37-.83-.64-.21-.26-.38-.55-.49-.86-.11-.31-.19-.61-.23-.91s-.06-.56-.06-.78v-4.05h1.43v3.58c0,.28.02.57.07.87.05.3.14.58.27.83.13.26.32.46.56.62s.55.24.94.24c.25,0,.49-.04.72-.12.23-.08.42-.22.59-.4.17-.18.3-.43.4-.73.1-.3.15-.67.15-1.1l.88.33c0,.66-.12,1.25-.37,1.75s-.6.9-1.07,1.18-1.02.43-1.68.43ZM128.71,117.11v-2.11h-.17v-5.18h1.42v7.29h-1.26Z"/>
  <path class="cls-3" d="M131.85,117.11v-7.29h1.26v1.77l-.18-.23c.09-.23.21-.45.35-.64s.31-.36.5-.48c.18-.13.39-.24.62-.31.23-.07.46-.12.7-.14.24-.02.47,0,.69.04v1.32c-.24-.06-.5-.08-.79-.05-.29.03-.56.12-.8.28-.23.15-.41.33-.54.54-.13.21-.23.45-.29.71s-.09.53-.09.82v3.68h-1.42Z"/>
  <path class="cls-3" d="M140.31,117.31c-.72,0-1.36-.16-1.91-.48s-.97-.76-1.28-1.33-.46-1.23-.46-1.98c0-.8.15-1.49.45-2.07.3-.58.72-1.04,1.25-1.36.54-.32,1.16-.48,1.87-.48s1.37.17,1.9.52.91.83,1.17,1.47c.26.63.36,1.39.31,2.26h-1.41v-.51c0-.85-.17-1.47-.48-1.88-.31-.4-.79-.61-1.43-.61-.71,0-1.24.22-1.59.67-.36.45-.53,1.09-.53,1.93s.18,1.42.53,1.86c.36.44.87.66,1.54.66.44,0,.82-.1,1.14-.3s.57-.49.75-.86l1.38.44c-.28.65-.71,1.16-1.29,1.52-.58.36-1.22.54-1.92.54ZM137.71,113.86v-1.1h5.2v1.1h-5.2Z"/>
  <path class="cls-3" d="M68.78,135.31c-.76,0-1.43-.16-2.01-.47-.58-.31-1.04-.75-1.37-1.32-.33-.56-.49-1.23-.49-1.99v-6.14h1.43s0,6.06,0,6.06c0,.41.07.78.21,1.09.14.31.33.58.56.79s.5.37.79.48c.29.11.59.16.89.16s.6-.05.89-.17.55-.27.79-.48c.23-.21.42-.47.56-.79s.21-.68.21-1.09v-6.07h1.43v6.14c0,.76-.16,1.42-.49,1.99-.33.57-.78,1.01-1.37,1.32-.58.31-1.25.47-2.02.47Z"/>
  <path class="cls-3" d="M74.54,135.11v-7.29h1.26v2.11h.17v5.18h-1.43ZM79.67,135.11v-3.58c0-.28-.02-.57-.07-.87s-.14-.58-.27-.83-.32-.46-.56-.62c-.24-.16-.55-.24-.94-.24-.25,0-.49.04-.72.12-.23.08-.42.22-.59.4s-.3.43-.4.73c-.1.3-.15.67-.15,1.1l-.88-.33c0-.66.12-1.25.37-1.75s.6-.9,1.07-1.18c.46-.28,1.02-.43,1.68-.43.5,0,.93.08,1.27.24.34.16.62.37.83.64s.38.55.49.86.19.61.23.91.06.56.06.78v4.05h-1.43Z"/>
  <path class="cls-3" d="M85.75,135.31c-.68,0-1.27-.17-1.76-.51s-.87-.8-1.14-1.38c-.27-.58-.4-1.24-.4-1.97s.13-1.39.4-1.97c.27-.58.65-1.04,1.15-1.37.5-.33,1.09-.5,1.77-.5s1.27.17,1.74.5c.47.34.83.79,1.07,1.37.24.58.36,1.24.36,1.96s-.12,1.38-.36,1.96-.6,1.04-1.07,1.38-1.06.51-1.75.51ZM85.94,134.04c.46,0,.84-.11,1.13-.33.29-.22.51-.52.64-.91.14-.39.2-.83.2-1.34s-.07-.95-.21-1.34c-.14-.39-.35-.69-.63-.9-.29-.22-.65-.32-1.09-.32-.47,0-.85.11-1.15.34-.3.23-.53.54-.67.92-.15.39-.22.82-.22,1.3s.07.92.22,1.31c.15.39.37.7.66.93.29.23.67.34,1.12.34ZM87.92,135.11v-5.24h-.16v-4.48h1.42v9.72h-1.26Z"/>
  <path class="cls-3" d="M94.3,135.31c-.72,0-1.36-.16-1.91-.48s-.97-.76-1.28-1.33-.46-1.23-.46-1.98c0-.8.15-1.49.45-2.07.3-.58.72-1.04,1.25-1.36.54-.32,1.16-.48,1.87-.48s1.37.17,1.9.52.91.83,1.17,1.47c.26.63.36,1.39.31,2.26h-1.41v-.51c0-.85-.17-1.47-.48-1.88-.31-.4-.79-.61-1.43-.61-.71,0-1.24.22-1.59.67-.36.45-.53,1.09-.53,1.93s.18,1.42.53,1.86c.36.44.87.66,1.54.66.44,0,.82-.1,1.14-.3s.57-.49.75-.86l1.38.44c-.28.65-.71,1.16-1.29,1.52-.58.36-1.22.54-1.92.54ZM91.7,131.86v-1.1h5.2v1.1h-5.2Z"/>
  <path class="cls-3" d="M99.12,135.11v-7.29h1.26v1.77l-.18-.23c.09-.23.21-.45.35-.64s.31-.36.5-.48c.18-.13.39-.24.62-.31.23-.07.46-.12.7-.14.24-.02.47,0,.69.04v1.32c-.24-.06-.5-.08-.79-.05-.29.03-.56.12-.8.28-.23.15-.41.33-.54.54-.13.21-.23.45-.29.71s-.09.53-.09.82v3.68h-1.42Z"/>
  <path class="cls-3" d="M106.78,135.31c-.89,0-1.61-.2-2.17-.59s-.9-.94-1.03-1.65l1.44-.22c.09.38.3.68.62.89s.73.33,1.22.33c.44,0,.79-.09,1.04-.27.25-.18.37-.43.37-.74,0-.18-.04-.33-.13-.45s-.27-.22-.55-.33c-.28-.1-.7-.23-1.28-.38-.63-.16-1.12-.34-1.49-.52-.37-.19-.63-.41-.78-.65-.16-.25-.23-.55-.23-.91,0-.44.12-.83.35-1.15.23-.33.56-.58.99-.76.43-.18.92-.27,1.5-.27s1.06.09,1.49.26c.44.18.79.42,1.06.75s.43.7.49,1.13l-1.44.26c-.05-.35-.21-.63-.49-.83-.28-.2-.64-.31-1.09-.33-.43-.02-.77.05-1.04.21-.27.16-.4.38-.4.66,0,.16.05.3.15.41.1.11.3.22.59.32.29.1.72.23,1.3.37.61.16,1.1.33,1.46.52.36.19.62.42.77.68s.23.58.23.96c0,.72-.26,1.28-.79,1.69s-1.25.61-2.17.61Z"/>
  <path class="cls-3" d="M110.41,128.95v-1.13h4.98v1.13h-4.98ZM115.4,135.11c-.46.09-.91.13-1.35.11-.44-.01-.83-.1-1.18-.26-.35-.16-.61-.41-.78-.74-.16-.3-.24-.61-.25-.92-.01-.31-.02-.67-.02-1.06v-6.45h1.42v6.38c0,.29,0,.55.01.76,0,.22.05.4.14.55.16.28.42.44.77.48.35.04.77.02,1.25-.04v1.19Z"/>
  <path class="cls-3" d="M118.99,135.31c-.54,0-.99-.1-1.36-.3-.36-.2-.64-.47-.83-.8-.19-.33-.28-.69-.28-1.09,0-.37.06-.69.2-.97.13-.28.32-.52.58-.71.26-.2.57-.35.94-.48.32-.09.69-.18,1.1-.25.41-.07.84-.14,1.29-.2.45-.06.9-.13,1.35-.19l-.51.28c0-.57-.11-1-.36-1.27-.25-.28-.68-.42-1.29-.42-.38,0-.73.09-1.05.27-.32.18-.54.47-.67.88l-1.32-.4c.18-.63.52-1.12,1.03-1.49s1.18-.55,2.02-.55c.65,0,1.22.11,1.7.33.48.22.84.57,1.06,1.06.12.24.19.49.22.76.03.27.04.55.04.86v4.49h-1.25v-1.67l.24.22c-.3.56-.69.97-1.15,1.25-.47.27-1.04.41-1.72.41ZM119.24,134.16c.4,0,.74-.07,1.03-.21.29-.14.52-.32.7-.54.18-.22.29-.45.34-.69.08-.22.12-.46.13-.73.01-.27.02-.49.02-.65l.46.17c-.45.07-.85.13-1.21.18-.36.05-.69.11-.99.16-.29.05-.56.11-.79.19-.19.07-.37.15-.52.24-.15.09-.27.21-.36.34-.09.13-.13.3-.13.49s.05.36.14.52c.09.16.24.29.43.38.19.09.44.14.74.14Z"/>
  <path class="cls-3" d="M124.61,135.11v-7.29h1.26v2.11h.17v5.18h-1.43ZM129.73,135.11v-3.58c0-.28-.02-.57-.07-.87s-.14-.58-.27-.83-.32-.46-.56-.62c-.24-.16-.55-.24-.94-.24-.25,0-.49.04-.72.12-.23.08-.42.22-.59.4s-.3.43-.4.73c-.1.3-.15.67-.15,1.1l-.88-.33c0-.66.12-1.25.37-1.75s.6-.9,1.07-1.18c.46-.28,1.02-.43,1.68-.43.5,0,.93.08,1.27.24.34.16.62.37.83.64s.38.55.49.86.19.61.23.91.06.56.06.78v4.05h-1.43Z"/>
  <path class="cls-3" d="M135.81,135.31c-.68,0-1.27-.17-1.76-.51s-.87-.8-1.14-1.38c-.27-.58-.4-1.24-.4-1.97s.13-1.39.4-1.97c.27-.58.65-1.04,1.15-1.37.5-.33,1.09-.5,1.77-.5s1.27.17,1.74.5c.47.34.83.79,1.07,1.37.24.58.36,1.24.36,1.96s-.12,1.38-.36,1.96-.6,1.04-1.07,1.38-1.06.51-1.75.51ZM136.01,134.04c.46,0,.84-.11,1.13-.33.29-.22.51-.52.64-.91.14-.39.2-.83.2-1.34s-.07-.95-.21-1.34c-.14-.39-.35-.69-.63-.9-.29-.22-.65-.32-1.09-.32-.47,0-.85.11-1.15.34-.3.23-.53.54-.67.92-.15.39-.22.82-.22,1.3s.07.92.22,1.31c.15.39.37.7.66.93.29.23.67.34,1.12.34ZM137.99,135.11v-5.24h-.16v-4.48h1.42v9.72h-1.26Z"/>
  <path class="cls-3" d="M141.27,126.62v-1.37h1.41v1.37h-1.41ZM141.27,135.11v-7.29h1.41v7.29h-1.41Z"/>
  <path class="cls-3" d="M144.7,135.11v-7.29h1.26v2.11h.17v5.18h-1.43ZM149.82,135.11v-3.58c0-.28-.02-.57-.07-.87s-.14-.58-.27-.83-.32-.46-.56-.62c-.24-.16-.55-.24-.94-.24-.25,0-.49.04-.72.12-.23.08-.42.22-.59.4s-.3.43-.4.73c-.1.3-.15.67-.15,1.1l-.88-.33c0-.66.12-1.25.37-1.75s.6-.9,1.07-1.18c.46-.28,1.02-.43,1.68-.43.5,0,.93.08,1.27.24.34.16.62.37.83.64s.38.55.49.86.19.61.23.91.06.56.06.78v4.05h-1.43Z"/>
  <path class="cls-3" d="M155.9,135.31c-.68,0-1.27-.17-1.76-.51s-.87-.8-1.14-1.38c-.27-.58-.4-1.24-.4-1.97s.13-1.39.4-1.97c.27-.58.65-1.04,1.15-1.37.5-.33,1.09-.5,1.77-.5s1.27.17,1.74.5c.47.34.83.79,1.07,1.37.24.58.36,1.24.36,1.96s-.12,1.38-.36,1.96-.6,1.04-1.07,1.38-1.06.51-1.75.51ZM156.01,138.55c-.39,0-.77-.06-1.14-.18-.37-.12-.7-.3-1-.54-.3-.24-.55-.53-.75-.87l1.3-.66c.16.31.38.54.68.68s.6.22.92.22c.4,0,.74-.07,1.03-.21s.5-.35.64-.64c.15-.28.22-.63.21-1.05v-2.04h.17v-5.43h1.25v7.49c0,.19,0,.38-.02.55-.01.18-.04.35-.07.53-.1.49-.3.9-.59,1.21-.29.32-.66.56-1.11.72-.45.16-.96.24-1.52.24ZM156.1,134.04c.46,0,.84-.11,1.13-.33.29-.22.51-.52.64-.91.14-.39.2-.83.2-1.34s-.07-.95-.21-1.34c-.14-.39-.35-.69-.63-.9-.29-.22-.65-.32-1.09-.32-.47,0-.85.11-1.15.34-.3.23-.53.54-.67.92-.15.39-.22.82-.22,1.3s.07.92.22,1.31c.15.39.37.7.66.93.29.23.67.34,1.12.34Z"/>
  <path class="cls-5" d="M220.08,91.25c-3.31,0-6,2.69-6,6v48c0,3.31,2.69,6,6,6h168c3.31,0,6-2.69,6-6v-48c0-3.31-2.69-6-6-6h-168Z"/>
  <path class="cls-3" d="M252.35,126.31c-.97,0-1.8-.21-2.48-.64s-1.21-1.02-1.57-1.78c-.36-.76-.54-1.64-.54-2.65s.18-1.89.54-2.65c.36-.76.89-1.35,1.57-1.78s1.51-.64,2.48-.64c1.12,0,2.05.28,2.78.85.74.57,1.25,1.33,1.54,2.29l-1.43.38c-.19-.68-.53-1.21-1.01-1.6-.48-.39-1.11-.58-1.88-.58-.69,0-1.26.16-1.72.47-.46.31-.8.74-1.04,1.3-.23.56-.35,1.21-.35,1.95,0,.74.11,1.39.34,1.95.23.56.58.99,1.04,1.3.46.31,1.04.47,1.72.47.77,0,1.4-.19,1.88-.58.48-.39.82-.92,1.01-1.6l1.43.38c-.29.96-.8,1.72-1.54,2.29s-1.66.85-2.78.85Z"/>
  <path class="cls-3" d="M261.32,126.31c-.73,0-1.36-.16-1.9-.49-.54-.33-.95-.78-1.24-1.36-.29-.58-.44-1.25-.44-2s.15-1.43.45-2.01c.3-.58.71-1.03,1.25-1.35.54-.32,1.16-.48,1.88-.48s1.36.16,1.9.49c.54.33.95.78,1.24,1.36.29.58.44,1.24.44,1.99s-.15,1.43-.44,2.01-.71,1.03-1.25,1.36c-.54.33-1.17.49-1.89.49ZM261.32,124.98c.7,0,1.22-.23,1.56-.71s.52-1.08.52-1.82-.17-1.37-.52-1.83-.87-.69-1.56-.69c-.47,0-.86.11-1.17.32-.31.21-.53.51-.68.88-.15.38-.22.81-.22,1.31,0,.77.18,1.38.53,1.84s.87.69,1.55.69Z"/>
  <path class="cls-3" d="M269.28,126.31c-.68,0-1.27-.17-1.76-.51s-.87-.8-1.14-1.38c-.27-.58-.4-1.24-.4-1.97s.13-1.39.4-1.97c.27-.58.65-1.04,1.15-1.37.5-.33,1.09-.5,1.77-.5s1.27.17,1.74.5c.47.34.83.79,1.07,1.37.24.58.36,1.24.36,1.96s-.12,1.38-.36,1.96-.6,1.04-1.07,1.38-1.06.51-1.75.51ZM269.47,125.04c.46,0,.84-.11,1.13-.33.29-.22.51-.52.64-.91.14-.39.2-.83.2-1.34s-.07-.95-.21-1.34c-.14-.39-.35-.69-.63-.9-.29-.22-.65-.32-1.09-.32-.47,0-.85.11-1.15.34-.3.23-.53.54-.67.92-.15.39-.22.82-.22,1.3s.07.92.22,1.31c.15.39.37.7.66.93.29.23.67.34,1.12.34ZM271.45,126.11v-5.24h-.16v-4.48h1.42v9.72h-1.26Z"/>
  <path class="cls-3" d="M277.83,126.31c-.72,0-1.36-.16-1.91-.48s-.97-.76-1.28-1.33-.46-1.23-.46-1.98c0-.8.15-1.49.45-2.07.3-.58.72-1.04,1.25-1.36.54-.32,1.16-.48,1.87-.48s1.37.17,1.9.52.91.83,1.17,1.47c.26.63.36,1.39.31,2.26h-1.41v-.51c0-.85-.17-1.47-.48-1.88-.31-.4-.79-.61-1.43-.61-.71,0-1.24.22-1.59.67-.36.45-.53,1.09-.53,1.93s.18,1.42.53,1.86c.36.44.87.66,1.54.66.44,0,.82-.1,1.14-.3s.57-.49.75-.86l1.38.44c-.28.65-.71,1.16-1.29,1.52-.58.36-1.22.54-1.92.54ZM275.23,122.86v-1.1h5.2v1.1h-5.2Z"/>
  <path class="cls-3" d="M288.54,126.31c-.54,0-1.05-.08-1.53-.24s-.87-.41-1.19-.75c-.25-.27-.43-.58-.55-.91-.12-.33-.19-.68-.2-1.06,0-.36.05-.72.16-1.06.11-.34.27-.65.5-.92.1-.13.22-.24.34-.33s.25-.17.38-.25c-.29-.31-.51-.62-.65-.9-.15-.29-.22-.62-.22-1.02,0-.55.14-1.04.43-1.48.29-.44.68-.75,1.18-.95.23-.09.46-.16.7-.19.24-.03.47-.05.7-.05.4,0,.8.06,1.17.18.38.12.7.31.97.57.17.16.32.33.44.53.12.2.21.4.27.61l-1.39.32c-.08-.22-.2-.4-.38-.55-.15-.13-.32-.22-.52-.27-.2-.05-.39-.07-.58-.07-.32,0-.61.06-.86.18-.23.11-.41.27-.53.46-.12.2-.18.43-.18.71,0,.24.04.44.13.59.09.15.2.3.34.47.09.09.19.2.31.3.12.11.24.22.37.34l2.65,2.46c0-.1.02-.2.02-.32,0-.11,0-.22,0-.32v-1.26s1.26,0,1.26,0v1.67c0,.28,0,.54-.02.77-.02.23-.04.41-.08.56l1.22,1.13-.91.98-.98-.93c-.21.21-.44.38-.7.52-.26.14-.52.25-.78.31-.22.07-.44.11-.65.14-.21.02-.43.03-.64.03ZM288.58,124.96c.18,0,.35-.01.5-.03.15-.02.3-.06.44-.12.19-.08.34-.16.46-.24.12-.08.22-.16.3-.24l-2.77-2.54c-.14.05-.27.11-.39.19-.12.08-.22.17-.31.27-.1.13-.18.28-.23.46-.05.17-.08.36-.07.56,0,.22.03.41.1.59.07.18.16.34.27.48.18.22.43.37.75.47s.63.15.94.15Z"/>
  <path class="cls-3" d="M296.99,126.11v-9.72h6.21v1.33h-4.8v2.73h3.99v1.33h-3.99v3h4.8v1.33h-6.21Z"/>
  <path class="cls-3" d="M304.01,126.11l2.73-3.69-2.67-3.6h1.67l1.82,2.5,1.8-2.5h1.67l-2.67,3.6,2.73,3.69h-1.68l-1.86-2.59-1.87,2.59h-1.68Z"/>
  <path class="cls-3" d="M315.15,126.31c-.72,0-1.36-.16-1.91-.48s-.97-.76-1.28-1.33-.46-1.23-.46-1.98c0-.8.15-1.49.45-2.07.3-.58.72-1.04,1.25-1.36.54-.32,1.16-.48,1.87-.48s1.37.17,1.9.52.91.83,1.17,1.47c.26.63.36,1.39.31,2.26h-1.41v-.51c0-.85-.17-1.47-.48-1.88-.31-.4-.79-.61-1.43-.61-.71,0-1.24.22-1.59.67-.36.45-.53,1.09-.53,1.93s.18,1.42.53,1.86c.36.44.87.66,1.54.66.44,0,.82-.1,1.14-.3s.57-.49.75-.86l1.38.44c-.28.65-.71,1.16-1.29,1.52-.58.36-1.22.54-1.92.54ZM312.55,122.86v-1.1h5.2v1.1h-5.2Z"/>
  <path class="cls-3" d="M323.09,126.31c-.75,0-1.38-.17-1.9-.5-.52-.33-.92-.79-1.2-1.37-.28-.58-.42-1.24-.42-1.98,0-.75.15-1.42.43-1.99.28-.58.69-1.03,1.21-1.36.53-.33,1.16-.49,1.9-.49.8,0,1.48.2,2.04.59.56.4.94.94,1.12,1.63l-1.4.41c-.14-.41-.37-.73-.69-.96-.32-.23-.68-.34-1.09-.34-.46,0-.84.11-1.14.33s-.52.52-.66.89-.22.81-.22,1.3c0,.75.18,1.36.52,1.82.34.46.84.69,1.51.69.45,0,.82-.1,1.1-.31.28-.21.5-.51.64-.9l1.43.34c-.24.71-.63,1.26-1.18,1.64-.55.38-1.21.57-2,.57Z"/>
  <path class="cls-3" d="M330.39,126.31c-.5,0-.93-.08-1.27-.24-.34-.16-.62-.37-.83-.64-.21-.26-.38-.55-.49-.86-.11-.31-.19-.61-.23-.91s-.06-.56-.06-.78v-4.05h1.43v3.58c0,.28.02.57.07.87.05.3.14.58.27.83.13.26.32.46.56.62s.55.24.94.24c.25,0,.49-.04.72-.12.23-.08.42-.22.59-.4.17-.18.3-.43.4-.73.1-.3.15-.67.15-1.1l.88.33c0,.66-.12,1.25-.37,1.75s-.6.9-1.07,1.18-1.02.43-1.68.43ZM332.8,126.11v-2.11h-.17v-5.18h1.42v7.29h-1.26Z"/>
  <path class="cls-3" d="M335.14,119.95v-1.13h4.98v1.13h-4.98ZM340.12,126.11c-.46.09-.91.13-1.35.11-.44-.01-.83-.1-1.18-.26-.35-.16-.61-.41-.78-.74-.16-.3-.24-.61-.25-.92-.01-.31-.02-.67-.02-1.06v-6.45h1.42v6.38c0,.29,0,.55.01.76,0,.22.05.4.14.55.16.28.42.44.77.48.35.04.77.02,1.25-.04v1.19Z"/>
  <path class="cls-3" d="M341.79,117.62v-1.37h1.41v1.37h-1.41ZM341.79,126.11v-7.29h1.41v7.29h-1.41Z"/>
  <path class="cls-3" d="M348.39,126.31c-.73,0-1.36-.16-1.9-.49-.54-.33-.95-.78-1.24-1.36-.29-.58-.44-1.25-.44-2s.15-1.43.45-2.01c.3-.58.71-1.03,1.25-1.35.54-.32,1.16-.48,1.88-.48s1.36.16,1.9.49c.54.33.95.78,1.24,1.36.29.58.44,1.24.44,1.99s-.15,1.43-.44,2.01-.71,1.03-1.25,1.36c-.54.33-1.17.49-1.89.49ZM348.39,124.98c.7,0,1.22-.23,1.56-.71s.52-1.08.52-1.82-.17-1.37-.52-1.83-.87-.69-1.56-.69c-.47,0-.86.11-1.17.32-.31.21-.53.51-.68.88-.15.38-.22.81-.22,1.31,0,.77.18,1.38.53,1.84s.87.69,1.55.69Z"/>
  <path class="cls-3" d="M353.44,126.11v-7.29h1.26v2.11h.17v5.18h-1.43ZM358.56,126.11v-3.58c0-.28-.02-.57-.07-.87s-.14-.58-.27-.83-.32-.46-.56-.62c-.24-.16-.55-.24-.94-.24-.25,0-.49.04-.72.12-.23.08-.42.22-.59.4s-.3.43-.4.73c-.1.3-.15.67-.15,1.1l-.88-.33c0-.66.12-1.25.37-1.75s.6-.9,1.07-1.18c.46-.28,1.02-.43,1.68-.43.5,0,.93.08,1.27.24.34.16.62.37.83.64s.38.55.49.86.19.61.23.91.06.56.06.78v4.05h-1.43Z"/>
  <path class="cls-4" d="M412.08,91.25c-3.31,0-6,2.69-6,6v48c0,3.31,2.69,6,6,6h168c3.31,0,6-2.69,6-6v-48c0-3.31-2.69-6-6-6h-168Z"/>
  <path class="cls-1" d="M453.52,126.11v-9.72h3.04c.09,0,.26,0,.5,0,.25,0,.48.02.71.05.76.09,1.4.37,1.92.82.52.45.91,1.02,1.18,1.71s.4,1.45.4,2.27-.13,1.59-.4,2.28c-.27.69-.66,1.26-1.18,1.71-.52.45-1.16.72-1.92.81-.22.03-.46.05-.71.05s-.41,0-.5,0h-3.04ZM454.96,124.77h1.6c.15,0,.33,0,.55-.01.21,0,.4-.03.56-.05.49-.09.9-.31,1.2-.64.31-.34.53-.75.68-1.24.14-.49.22-1.01.22-1.57s-.07-1.1-.22-1.59-.38-.9-.68-1.23c-.31-.33-.71-.54-1.19-.63-.16-.03-.35-.05-.56-.06s-.39-.01-.54-.01h-1.6v7.03Z"/>
  <path class="cls-1" d="M464.9,126.31c-.54,0-.99-.1-1.36-.3-.37-.2-.64-.47-.83-.8-.19-.33-.28-.69-.28-1.09,0-.37.07-.69.2-.97.13-.28.32-.52.58-.71.26-.2.57-.35.95-.48.32-.09.69-.18,1.1-.25.41-.07.84-.14,1.29-.2s.9-.13,1.35-.19l-.51.28c0-.57-.11-1-.36-1.27-.25-.28-.68-.42-1.29-.42-.38,0-.73.09-1.05.27-.32.18-.54.47-.67.88l-1.32-.4c.18-.63.52-1.12,1.03-1.49.51-.37,1.18-.55,2.02-.55.65,0,1.22.11,1.7.33.48.22.84.57,1.06,1.06.12.24.19.49.22.76.03.27.04.55.04.86v4.49h-1.25v-1.67l.24.22c-.3.56-.68.97-1.15,1.25-.47.27-1.04.41-1.72.41ZM465.15,125.16c.4,0,.74-.07,1.03-.21.29-.14.52-.32.7-.54.18-.22.29-.45.34-.69.08-.22.12-.46.13-.73.01-.27.02-.49.02-.65l.46.17c-.45.07-.85.13-1.22.18-.36.05-.69.11-.99.16s-.56.11-.79.19c-.19.07-.37.15-.52.24-.15.09-.27.21-.36.34-.09.13-.13.3-.13.49s.05.36.14.52c.09.16.24.29.43.38.19.09.44.14.74.14Z"/>
  <path class="cls-1" d="M469.72,119.95v-1.13h4.98v1.13h-4.98ZM474.7,126.11c-.46.09-.91.13-1.35.11-.44-.01-.83-.1-1.18-.26-.35-.16-.61-.41-.78-.74-.16-.3-.24-.61-.25-.92-.01-.31-.02-.67-.02-1.06v-6.45h1.42v6.38c0,.29,0,.55,0,.76,0,.22.05.4.14.55.16.28.42.44.77.48s.77.02,1.25-.04v1.19Z"/>
  <path class="cls-1" d="M478.29,126.31c-.54,0-.99-.1-1.36-.3-.37-.2-.64-.47-.83-.8-.19-.33-.28-.69-.28-1.09,0-.37.07-.69.2-.97.13-.28.32-.52.58-.71.26-.2.57-.35.95-.48.32-.09.69-.18,1.1-.25.41-.07.84-.14,1.29-.2s.9-.13,1.35-.19l-.51.28c0-.57-.11-1-.36-1.27-.25-.28-.68-.42-1.29-.42-.38,0-.73.09-1.05.27-.32.18-.54.47-.67.88l-1.32-.4c.18-.63.52-1.12,1.03-1.49.51-.37,1.18-.55,2.02-.55.65,0,1.22.11,1.7.33.48.22.84.57,1.06,1.06.12.24.19.49.22.76.03.27.04.55.04.86v4.49h-1.25v-1.67l.24.22c-.3.56-.68.97-1.15,1.25-.47.27-1.04.41-1.72.41ZM478.54,125.16c.4,0,.74-.07,1.03-.21.29-.14.52-.32.7-.54.18-.22.29-.45.34-.69.08-.22.12-.46.13-.73.01-.27.02-.49.02-.65l.46.17c-.45.07-.85.13-1.22.18-.36.05-.69.11-.99.16s-.56.11-.79.19c-.19.07-.37.15-.52.24-.15.09-.27.21-.36.34-.09.13-.13.3-.13.49s.05.36.14.52c.09.16.24.29.43.38.19.09.44.14.74.14Z"/>
  <path class="cls-1" d="M485.95,126.11l3.16-9.72h2.03l3.16,9.72h-1.46l-2.91-8.87h.36l-2.88,8.87h-1.46ZM487.59,123.92v-1.32h5.08v1.32h-5.08Z"/>
  <path class="cls-1" d="M495.5,126.11v-7.29h1.26v2.11h.17v5.18h-1.43ZM500.63,126.11v-3.58c0-.28-.02-.57-.07-.87-.05-.3-.14-.58-.27-.83s-.32-.46-.56-.62c-.24-.16-.55-.24-.94-.24-.25,0-.49.04-.72.12-.22.08-.42.22-.59.4-.17.18-.3.43-.4.73-.1.3-.15.67-.15,1.1l-.88-.33c0-.66.12-1.25.37-1.75.25-.51.6-.9,1.07-1.18.46-.28,1.02-.43,1.68-.43.5,0,.93.08,1.27.24s.62.37.83.64.38.55.49.86.19.61.23.91c.04.3.06.56.06.78v4.05h-1.43Z"/>
  <path class="cls-1" d="M505.87,126.31c-.54,0-.99-.1-1.36-.3-.37-.2-.64-.47-.83-.8-.19-.33-.28-.69-.28-1.09,0-.37.07-.69.2-.97.13-.28.32-.52.58-.71.26-.2.57-.35.95-.48.32-.09.69-.18,1.1-.25.41-.07.84-.14,1.29-.2s.9-.13,1.35-.19l-.51.28c0-.57-.11-1-.36-1.27-.25-.28-.68-.42-1.29-.42-.38,0-.73.09-1.05.27-.32.18-.54.47-.67.88l-1.32-.4c.18-.63.52-1.12,1.03-1.49.51-.37,1.18-.55,2.02-.55.65,0,1.22.11,1.7.33.48.22.84.57,1.06,1.06.12.24.19.49.22.76.03.27.04.55.04.86v4.49h-1.25v-1.67l.24.22c-.3.56-.68.97-1.15,1.25-.47.27-1.04.41-1.72.41ZM506.12,125.16c.4,0,.74-.07,1.03-.21.29-.14.52-.32.7-.54.18-.22.29-.45.34-.69.08-.22.12-.46.13-.73.01-.27.02-.49.02-.65l.46.17c-.45.07-.85.13-1.22.18-.36.05-.69.11-.99.16s-.56.11-.79.19c-.19.07-.37.15-.52.24-.15.09-.27.21-.36.34-.09.13-.13.3-.13.49s.05.36.14.52c.09.16.24.29.43.38.19.09.44.14.74.14Z"/>
  <path class="cls-1" d="M511.64,126.11v-9.92h1.41v9.92h-1.41Z"/>
  <path class="cls-1" d="M516.06,129.35l1.41-3.84.02,1.13-3.18-7.82h1.47l2.38,6.04h-.43l2.27-6.04h1.43l-4.02,10.53h-1.34Z"/>
  <path class="cls-1" d="M525.26,126.31c-.89,0-1.61-.2-2.17-.59-.56-.39-.9-.94-1.03-1.65l1.44-.22c.09.38.3.68.62.89.33.22.73.33,1.22.33.44,0,.79-.09,1.04-.27.25-.18.38-.43.38-.74,0-.18-.04-.33-.13-.45s-.27-.22-.55-.33c-.28-.1-.71-.23-1.28-.38-.62-.16-1.12-.34-1.49-.52-.37-.19-.63-.41-.78-.65-.16-.25-.23-.55-.23-.91,0-.44.12-.83.35-1.15.23-.33.56-.58.99-.76.42-.18.92-.27,1.5-.27s1.05.09,1.49.26c.44.18.79.42,1.06.75.27.32.43.7.49,1.13l-1.44.26c-.05-.35-.21-.63-.49-.83-.28-.2-.64-.31-1.09-.33-.43-.02-.77.05-1.04.21-.27.16-.4.38-.4.66,0,.16.05.3.15.41.1.11.3.22.59.32.29.1.72.23,1.3.37.61.16,1.1.33,1.46.52s.62.42.77.68.23.58.23.96c0,.72-.26,1.28-.79,1.69-.52.41-1.25.61-2.17.61Z"/>
  <path class="cls-1" d="M529.85,117.62v-1.37h1.41v1.37h-1.41ZM529.85,126.11v-7.29h1.41v7.29h-1.41Z"/>
  <path class="cls-1" d="M536.06,126.31c-.89,0-1.61-.2-2.17-.59-.56-.39-.9-.94-1.03-1.65l1.44-.22c.09.38.3.68.62.89.33.22.73.33,1.22.33.44,0,.79-.09,1.04-.27.25-.18.38-.43.38-.74,0-.18-.04-.33-.13-.45s-.27-.22-.55-.33c-.28-.1-.71-.23-1.28-.38-.62-.16-1.12-.34-1.49-.52-.37-.19-.63-.41-.78-.65-.16-.25-.23-.55-.23-.91,0-.44.12-.83.35-1.15.23-.33.56-.58.99-.76.42-.18.92-.27,1.5-.27s1.05.09,1.49.26c.44.18.79.42,1.06.75.27.32.43.7.49,1.13l-1.44.26c-.05-.35-.21-.63-.49-.83-.28-.2-.64-.31-1.09-.33-.43-.02-.77.05-1.04.21-.27.16-.4.38-.4.66,0,.16.05.3.15.41.1.11.3.22.59.32.29.1.72.23,1.3.37.61.16,1.1.33,1.46.52s.62.42.77.68.23.58.23.96c0,.72-.26,1.28-.79,1.69-.52.41-1.25.61-2.17.61Z"/>
  <path class="cls-5" d="M604.08,91.25c-3.31,0-6,2.69-6,6v48c0,3.31,2.69,6,6,6h168c3.31,0,6-2.69,6-6v-48c0-3.31-2.69-6-6-6h-168Z"/>
  <path class="cls-3" d="M619.42,126.11v-9.72h6.21v1.33h-4.8v2.73h3.99v1.33h-3.99v3h4.8v1.33h-6.21Z"/>
  <path class="cls-3" d="M627.24,126.11v-7.29h1.26v2.11h.17v5.18h-1.43ZM632.36,126.11v-3.58c0-.28-.02-.57-.07-.87-.05-.3-.14-.58-.27-.83s-.32-.46-.56-.62c-.24-.16-.55-.24-.94-.24-.25,0-.49.04-.72.12-.22.08-.42.22-.59.4-.17.18-.3.43-.4.73-.1.3-.15.67-.15,1.1l-.88-.33c0-.66.12-1.25.37-1.75.25-.51.6-.9,1.07-1.18.46-.28,1.02-.43,1.68-.43.5,0,.93.08,1.27.24s.62.37.83.64.38.55.49.86.19.61.23.91c.04.3.06.56.06.78v4.05h-1.43Z"/>
  <path class="cls-3" d="M638.45,126.31c-.68,0-1.27-.17-1.76-.51-.49-.34-.87-.8-1.14-1.38-.27-.58-.4-1.24-.4-1.97s.13-1.39.41-1.97c.27-.58.65-1.04,1.15-1.37.5-.33,1.09-.5,1.77-.5s1.27.17,1.74.5c.47.34.83.79,1.07,1.37.24.58.36,1.24.36,1.96s-.12,1.38-.36,1.96-.6,1.04-1.07,1.38-1.06.51-1.75.51ZM638.64,125.04c.46,0,.84-.11,1.13-.33.29-.22.51-.52.64-.91.13-.39.2-.83.2-1.34s-.07-.95-.21-1.34c-.14-.39-.35-.69-.63-.9-.29-.22-.65-.32-1.09-.32-.47,0-.85.11-1.15.34-.3.23-.53.54-.67.92-.15.39-.22.82-.22,1.3s.07.92.22,1.31.37.7.66.93c.29.23.67.34,1.12.34ZM640.62,126.11v-5.24h-.16v-4.48h1.42v9.72h-1.25Z"/>
  <path class="cls-3" d="M643.63,122.42v-1.13h4.05v1.13h-4.05Z"/>
  <path class="cls-3" d="M648.62,119.95v-1.13h4.98v1.13h-4.98ZM653.61,126.11c-.46.09-.91.13-1.35.11-.44-.01-.83-.1-1.18-.26-.35-.16-.61-.41-.78-.74-.16-.3-.24-.61-.25-.92-.01-.31-.02-.67-.02-1.06v-6.45h1.42v6.38c0,.29,0,.55,0,.76,0,.22.05.4.14.55.16.28.42.44.77.48s.77.02,1.25-.04v1.19Z"/>
  <path class="cls-3" d="M657.89,126.31c-.73,0-1.36-.16-1.9-.49-.54-.33-.95-.78-1.24-1.36s-.44-1.25-.44-2,.15-1.43.45-2.01c.3-.58.71-1.03,1.25-1.35.54-.32,1.16-.48,1.88-.48s1.36.16,1.9.49c.54.33.95.78,1.24,1.36.29.58.44,1.24.44,1.99s-.15,1.43-.44,2.01-.71,1.03-1.25,1.36c-.54.33-1.17.49-1.89.49ZM657.89,124.98c.7,0,1.22-.23,1.56-.71.34-.47.52-1.08.52-1.82s-.17-1.37-.52-1.83c-.35-.46-.87-.69-1.56-.69-.47,0-.86.11-1.17.32-.31.21-.53.51-.68.88-.15.38-.22.81-.22,1.31,0,.77.18,1.38.53,1.84.35.46.87.69,1.54.69Z"/>
  <path class="cls-3" d="M662.82,122.42v-1.13h4.05v1.13h-4.05Z"/>
  <path class="cls-3" d="M668.62,126.11v-9.72h6.21v1.33h-4.8v2.73h3.99v1.33h-3.99v3h4.8v1.33h-6.21Z"/>
  <path class="cls-3" d="M676.44,126.11v-7.29h1.26v2.11h.17v5.18h-1.43ZM681.57,126.11v-3.58c0-.28-.02-.57-.07-.87-.05-.3-.14-.58-.27-.83s-.32-.46-.56-.62c-.24-.16-.55-.24-.94-.24-.25,0-.49.04-.72.12-.22.08-.42.22-.59.4-.17.18-.3.43-.4.73-.1.3-.15.67-.15,1.1l-.88-.33c0-.66.12-1.25.37-1.75.25-.51.6-.9,1.07-1.18.46-.28,1.02-.43,1.68-.43.5,0,.93.08,1.27.24s.62.37.83.64.38.55.49.86.19.61.23.91c.04.3.06.56.06.78v4.05h-1.43Z"/>
  <path class="cls-3" d="M687.65,126.31c-.68,0-1.27-.17-1.76-.51-.49-.34-.87-.8-1.14-1.38-.27-.58-.4-1.24-.4-1.97s.13-1.39.41-1.97c.27-.58.65-1.04,1.15-1.37.5-.33,1.09-.5,1.77-.5s1.27.17,1.74.5c.47.34.83.79,1.07,1.37.24.58.36,1.24.36,1.96s-.12,1.38-.36,1.96-.6,1.04-1.07,1.38-1.06.51-1.75.51ZM687.84,125.04c.46,0,.84-.11,1.13-.33.29-.22.51-.52.64-.91.13-.39.2-.83.2-1.34s-.07-.95-.21-1.34c-.14-.39-.35-.69-.63-.9-.29-.22-.65-.32-1.09-.32-.47,0-.85.11-1.15.34-.3.23-.53.54-.67.92-.15.39-.22.82-.22,1.3s.07.92.22,1.31.37.7.66.93c.29.23.67.34,1.12.34ZM689.82,126.11v-5.24h-.16v-4.48h1.42v9.72h-1.25Z"/>
  <path class="cls-3" d="M695.67,126.11v-9.72h3.04c.09,0,.26,0,.5,0,.25,0,.48.02.71.05.76.09,1.4.37,1.92.82.52.45.91,1.02,1.18,1.71s.4,1.45.4,2.27-.13,1.59-.4,2.28c-.27.69-.66,1.26-1.18,1.71-.52.45-1.16.72-1.92.81-.22.03-.46.05-.71.05s-.41,0-.5,0h-3.04ZM697.11,124.77h1.6c.15,0,.33,0,.55-.01.21,0,.4-.03.56-.05.49-.09.9-.31,1.2-.64.31-.34.53-.75.68-1.24.14-.49.22-1.01.22-1.57s-.07-1.1-.22-1.59-.38-.9-.68-1.23c-.31-.33-.71-.54-1.19-.63-.16-.03-.35-.05-.56-.06s-.39-.01-.54-.01h-1.6v7.03Z"/>
  <path class="cls-3" d="M705.12,117.62v-1.37h1.41v1.37h-1.41ZM705.12,126.11v-7.29h1.41v7.29h-1.41Z"/>
  <path class="cls-3" d="M711.35,126.31c-.89,0-1.61-.2-2.17-.59-.56-.39-.9-.94-1.03-1.65l1.44-.22c.09.38.3.68.62.89.33.22.73.33,1.22.33.44,0,.79-.09,1.04-.27.25-.18.38-.43.38-.74,0-.18-.04-.33-.13-.45s-.27-.22-.55-.33c-.28-.1-.71-.23-1.28-.38-.62-.16-1.12-.34-1.49-.52-.37-.19-.63-.41-.78-.65-.16-.25-.23-.55-.23-.91,0-.44.12-.83.35-1.15.23-.33.56-.58.99-.76.42-.18.92-.27,1.5-.27s1.05.09,1.49.26c.44.18.79.42,1.06.75.27.32.43.7.49,1.13l-1.44.26c-.05-.35-.21-.63-.49-.83-.28-.2-.64-.31-1.09-.33-.43-.02-.77.05-1.04.21-.27.16-.4.38-.4.66,0,.16.05.3.15.41.1.11.3.22.59.32.29.1.72.23,1.3.37.61.16,1.1.33,1.46.52s.62.42.77.68.23.58.23.96c0,.72-.26,1.28-.79,1.69-.52.41-1.25.61-2.17.61Z"/>
  <path class="cls-3" d="M718.91,126.31c-.75,0-1.38-.17-1.9-.5-.52-.33-.92-.79-1.2-1.37-.28-.58-.42-1.24-.42-1.98,0-.75.15-1.42.43-1.99.28-.58.69-1.03,1.21-1.36.53-.33,1.16-.49,1.9-.49.8,0,1.48.2,2.04.59.56.4.94.94,1.12,1.63l-1.4.41c-.14-.41-.37-.73-.69-.96s-.68-.34-1.09-.34c-.46,0-.84.11-1.14.33s-.52.52-.66.89c-.14.38-.22.81-.22,1.3,0,.75.18,1.36.52,1.82.34.46.84.69,1.51.69.45,0,.82-.1,1.1-.31.28-.21.5-.51.64-.9l1.43.34c-.24.71-.63,1.26-1.18,1.64-.55.38-1.21.57-2,.57Z"/>
  <path class="cls-3" d="M726.34,126.31c-.73,0-1.36-.16-1.9-.49-.54-.33-.95-.78-1.24-1.36s-.44-1.25-.44-2,.15-1.43.45-2.01c.3-.58.71-1.03,1.25-1.35.54-.32,1.16-.48,1.88-.48s1.36.16,1.9.49c.54.33.95.78,1.24,1.36.29.58.44,1.24.44,1.99s-.15,1.43-.44,2.01-.71,1.03-1.25,1.36c-.54.33-1.17.49-1.89.49ZM726.34,124.98c.7,0,1.22-.23,1.56-.71.34-.47.52-1.08.52-1.82s-.17-1.37-.52-1.83c-.35-.46-.87-.69-1.56-.69-.47,0-.86.11-1.17.32-.31.21-.53.51-.68.88-.15.38-.22.81-.22,1.31,0,.77.18,1.38.53,1.84.35.46.87.69,1.54.69Z"/>
  <path class="cls-3" d="M733.11,126.11l-2.65-7.29h1.42l1.94,5.52,1.94-5.52h1.42l-2.65,7.29h-1.43Z"/>
  <path class="cls-3" d="M741.36,126.31c-.72,0-1.36-.16-1.91-.48s-.97-.76-1.28-1.33c-.3-.57-.46-1.23-.46-1.98,0-.8.15-1.49.45-2.07.3-.58.72-1.04,1.25-1.36.54-.32,1.16-.48,1.87-.48s1.38.17,1.9.52c.52.34.91.83,1.17,1.47.26.63.36,1.39.31,2.26h-1.41v-.51c0-.85-.17-1.47-.48-1.88-.31-.4-.79-.61-1.43-.61-.71,0-1.24.22-1.59.67-.36.45-.53,1.09-.53,1.93s.18,1.42.53,1.86c.36.44.87.66,1.54.66.44,0,.82-.1,1.14-.3.32-.2.57-.49.75-.86l1.38.44c-.28.65-.71,1.16-1.29,1.52-.58.36-1.22.54-1.92.54ZM738.76,122.86v-1.1h5.21v1.1h-5.21Z"/>
  <path class="cls-3" d="M746.18,126.11v-7.29h1.25v1.77l-.17-.23c.09-.23.21-.45.35-.64.14-.2.31-.36.5-.48.18-.13.39-.24.62-.31.23-.07.46-.12.7-.14.24-.02.47,0,.69.04v1.32c-.24-.06-.5-.08-.79-.05s-.56.12-.8.28c-.23.15-.41.33-.54.54s-.23.45-.29.71-.09.53-.09.82v3.68h-1.42Z"/>
  <path class="cls-3" d="M752.19,129.35l1.41-3.84.02,1.13-3.18-7.82h1.47l2.38,6.04h-.43l2.27-6.04h1.43l-4.02,10.53h-1.34Z"/>
  <path class="cls-5" d="M28.08,163.25c-3.31,0-6,2.69-6,6v24c0,3.31,2.69,6,6,6h168c3.31,0,6-2.69,6-6v-24c0-3.31-2.69-6-6-6H28.08Z"/>
  <path class="cls-2" d="M37.13,186.11l3.35-9.72h1.32l3.35,9.72h-1.03l-3.18-9.17h.39l-3.16,9.17h-1.03ZM38.62,183.75v-.93h5.02v.93h-5.02Z"/>
  <path class="cls-2" d="M46.35,186.11v-7.29h.89v1.75l-.18-.23c.08-.22.19-.42.32-.6.13-.18.27-.33.43-.45.19-.17.41-.29.66-.38s.51-.14.76-.16c.26-.02.49,0,.7.06v.93c-.27-.07-.56-.08-.87-.05-.32.04-.61.16-.87.38-.24.19-.43.42-.55.68-.12.26-.2.54-.24.84-.04.29-.06.59-.06.87v3.64h-.99Z"/>
  <path class="cls-2" d="M50.41,186.11l2.85-3.69-2.79-3.6h1.19l2.18,2.84,2.16-2.84h1.19l-2.79,3.6,2.86,3.69h-1.19l-2.22-2.92-2.23,2.92h-1.19Z"/>
  <path class="cls-2" d="M58.47,177.44v-1.11h.99v1.11h-.99ZM58.47,186.11v-7.29h.99v7.29h-.99Z"/>
  <path class="cls-2" d="M63.46,186.11l-2.65-7.29h1.01l2.15,5.99,2.14-5.99h1.02l-2.65,7.29h-1.03Z"/>
  <path class="cls-2" d="M68.34,186.11v-9.72h2.95c.1,0,.28,0,.53,0,.25,0,.49.02.72.05.74.1,1.35.38,1.85.82.49.45.87,1.01,1.11,1.7.25.69.37,1.45.37,2.27s-.12,1.59-.37,2.28c-.25.69-.62,1.25-1.11,1.7-.5.45-1.11.72-1.85.82-.23.03-.47.04-.72.05-.26,0-.43,0-.53,0h-2.95ZM69.37,185.16h1.92c.18,0,.38,0,.6-.02.21-.01.4-.03.55-.06.57-.1,1.02-.33,1.37-.69.35-.36.6-.81.77-1.35.16-.54.24-1.14.24-1.79s-.08-1.25-.24-1.79c-.16-.54-.42-1-.77-1.35s-.81-.58-1.37-.68c-.15-.03-.34-.05-.56-.06-.22-.01-.42-.02-.59-.02h-1.92v7.82Z"/>
  <path class="cls-2" d="M77.54,186.11v-9.72h.99v9.72h-.99Z"/>
  <path class="cls-2" d="M84.46,186.31c-.68,0-1.3-.12-1.85-.36s-1.02-.58-1.4-1.02c-.38-.44-.68-.97-.88-1.6-.2-.62-.3-1.32-.3-2.09,0-1.02.18-1.9.53-2.66.35-.76.86-1.35,1.52-1.77.66-.42,1.46-.63,2.38-.63,1.03,0,1.88.24,2.53.73.65.48,1.1,1.13,1.36,1.95l-1,.24c-.21-.59-.56-1.07-1.04-1.42-.48-.36-1.09-.53-1.81-.53-.76,0-1.39.17-1.9.51-.5.34-.88.83-1.14,1.44-.25.62-.38,1.33-.39,2.14,0,.81.12,1.52.37,2.14s.64,1.1,1.14,1.44c.51.35,1.14.53,1.9.53.7,0,1.27-.13,1.73-.41.45-.27.8-.66,1.04-1.16s.37-1.1.4-1.79h-2.24v-.85h3.28c.01.1.02.21.02.33,0,.11,0,.2,0,.25,0,.88-.16,1.66-.47,2.35s-.79,1.24-1.42,1.63c-.63.4-1.43.6-2.38.6Z"/>
  <path class="cls-2" d="M90.08,186.11v-9.72h6.08v.95h-5.08v3.36h4.27v.95h-4.27v3.5h5.08v.95h-6.08Z"/>
  <path class="cls-2" d="M100.8,186.31c-.68,0-1.29-.11-1.83-.34-.54-.23-.99-.55-1.34-.97-.35-.42-.58-.92-.69-1.49l1.01-.17c.16.63.5,1.12,1.03,1.48.52.36,1.15.54,1.87.54.48,0,.9-.08,1.28-.23.38-.15.67-.37.89-.64.22-.28.32-.61.32-.99,0-.25-.04-.47-.13-.64-.09-.18-.21-.33-.36-.44s-.31-.21-.49-.29c-.18-.08-.35-.14-.51-.19l-2.46-.74c-.3-.08-.57-.19-.82-.33s-.47-.29-.66-.48c-.19-.19-.33-.41-.44-.66s-.16-.54-.16-.86c0-.55.14-1.02.43-1.42s.68-.71,1.18-.92,1.07-.32,1.71-.32c.65,0,1.23.12,1.74.34s.93.56,1.27.98c.33.43.55.93.66,1.51l-1.04.19c-.07-.42-.22-.79-.47-1.1-.24-.31-.55-.55-.93-.72-.38-.17-.79-.25-1.24-.26-.44,0-.82.07-1.16.22-.34.15-.61.34-.81.6-.2.25-.3.54-.3.86s.09.59.27.79.41.35.67.47c.27.11.53.2.78.28l1.9.56c.2.05.43.13.7.23.27.1.53.25.78.43.25.19.46.43.63.73.17.3.25.68.25,1.15s-.09.85-.27,1.21-.43.65-.75.9-.7.43-1.13.56c-.43.13-.9.19-1.41.19Z"/>
  <path class="cls-2" d="M108.33,186.11v-8.77h-3.4v-.95h7.78v.95h-3.4v8.77h-.99Z"/>
  <path class="cls-2" d="M114.94,186.31c-.55,0-1.01-.1-1.38-.3-.37-.2-.65-.46-.83-.79-.18-.33-.28-.69-.28-1.07s.08-.74.24-1.02c.16-.28.38-.51.65-.69.28-.18.6-.32.96-.41.37-.09.78-.17,1.23-.24.45-.07.89-.13,1.32-.18s.81-.1,1.13-.15l-.35.22c.01-.72-.13-1.25-.42-1.6s-.8-.52-1.53-.52c-.5,0-.92.11-1.27.34-.34.23-.59.58-.73,1.07l-.97-.28c.17-.65.5-1.16,1.01-1.52.5-.36,1.16-.54,1.96-.54.67,0,1.23.12,1.7.37.47.25.8.61.99,1.08.09.21.15.45.18.71.03.26.04.53.04.8v4.53h-.88v-1.83l.26.11c-.25.63-.63,1.1-1.15,1.43-.52.33-1.15.49-1.88.49ZM115.06,185.46c.46,0,.87-.08,1.21-.25.35-.17.63-.4.84-.69.21-.29.35-.62.41-.98.05-.23.08-.49.09-.77,0-.28,0-.49,0-.63l.38.2c-.34.04-.7.09-1.1.14-.39.04-.78.1-1.16.15-.38.06-.72.13-1.03.21-.21.06-.41.14-.6.25-.19.11-.35.25-.48.42-.12.18-.19.39-.19.66,0,.21.05.42.16.61.11.2.28.36.51.49.24.13.55.2.94.2Z"/>
  <path class="cls-2" d="M120.35,186.11v-9.72h1v4.23h-.11v5.49h-.89ZM123.63,186.31c-.67,0-1.24-.17-1.7-.51-.46-.34-.81-.8-1.05-1.38-.24-.58-.36-1.24-.36-1.96s.12-1.4.36-1.97.59-1.03,1.06-1.37c.47-.33,1.04-.5,1.73-.5s1.24.17,1.71.51.84.8,1.1,1.38c.25.58.38,1.23.38,1.96s-.13,1.38-.38,1.96c-.26.58-.63,1.04-1.11,1.38-.48.34-1.06.51-1.74.51ZM123.53,185.39c.51,0,.93-.13,1.27-.38.34-.26.59-.61.76-1.05.17-.44.25-.94.25-1.5s-.08-1.04-.25-1.49-.42-.79-.76-1.05c-.34-.26-.77-.38-1.29-.38s-.93.12-1.27.37c-.33.25-.59.59-.75,1.03s-.25.94-.25,1.52.08,1.07.25,1.51c.17.44.42.79.76,1.04s.77.38,1.28.38Z"/>
  <path class="cls-2" d="M128.48,186.11v-9.92h.99v9.92h-.99Z"/>
  <path class="cls-2" d="M134.58,186.31c-.71,0-1.33-.16-1.85-.47-.52-.32-.92-.76-1.21-1.33-.29-.57-.43-1.24-.43-2.01s.14-1.49.43-2.07c.28-.58.68-1.03,1.2-1.34.52-.32,1.12-.47,1.83-.47s1.33.17,1.84.5c.51.33.89.8,1.15,1.42.26.62.38,1.35.36,2.21h-1.01v-.35c-.02-.94-.22-1.66-.61-2.14-.39-.48-.96-.72-1.7-.72s-1.38.25-1.8.76c-.42.51-.62,1.23-.62,2.17s.21,1.63.62,2.14c.42.51,1.01.76,1.77.76.52,0,.98-.12,1.37-.36.39-.24.7-.59.92-1.04l.92.36c-.29.63-.71,1.13-1.27,1.48-.56.35-1.19.52-1.9.52ZM131.8,182.74v-.83h5.57v.83h-5.57Z"/>
  <path class="cls-2" d="M142.11,186.3c-.85,0-1.56-.18-2.11-.55-.55-.37-.89-.88-1.02-1.54l1.01-.17c.11.41.35.74.74.99.38.25.86.37,1.43.37s.99-.12,1.31-.35c.32-.23.48-.55.48-.95,0-.22-.05-.41-.15-.55-.1-.14-.31-.27-.62-.4-.31-.12-.77-.26-1.39-.43-.66-.18-1.18-.36-1.55-.54s-.64-.39-.8-.62c-.16-.24-.24-.53-.24-.87,0-.41.12-.78.35-1.09.23-.31.56-.56.97-.73.41-.17.9-.26,1.44-.26s1.04.09,1.47.27c.43.18.78.43,1.05.75.27.32.42.69.47,1.11l-1.01.18c-.07-.43-.28-.77-.64-1.02-.36-.25-.81-.38-1.36-.39-.52-.01-.94.08-1.26.29-.32.21-.49.49-.49.83,0,.19.06.36.18.5.12.14.33.27.64.39.31.12.75.25,1.32.4.67.17,1.2.35,1.58.54.38.19.65.41.82.67.16.26.24.57.24.95,0,.69-.26,1.23-.77,1.62-.51.39-1.21.59-2.11.59Z"/>
  <path class="cls-2" d="M146.34,182.28v-.85h4.05v.85h-4.05Z"/>
  <path class="cls-2" d="M156.08,186.31c-.97,0-1.78-.21-2.45-.64-.67-.43-1.17-1.02-1.51-1.79s-.51-1.64-.51-2.63.17-1.87.51-2.63c.34-.76.85-1.36,1.51-1.79.67-.43,1.48-.64,2.45-.64,1.13,0,2.05.29,2.77.87.72.58,1.21,1.35,1.47,2.33l-1.01.26c-.21-.77-.58-1.38-1.11-1.83-.54-.45-1.24-.67-2.11-.67-.76,0-1.39.17-1.9.52s-.88.83-1.14,1.45c-.25.62-.39,1.33-.4,2.14,0,.81.12,1.52.37,2.14.25.62.64,1.1,1.15,1.45s1.15.52,1.91.52c.87,0,1.58-.23,2.11-.68.54-.45.91-1.06,1.11-1.83l1.01.26c-.27.97-.76,1.75-1.47,2.33-.72.58-1.64.87-2.77.87Z"/>
  <path class="cls-2" d="M161.94,186.11v-9.92h.99v9.92h-.99Z"/>
  <path class="cls-2" d="M168.04,186.31c-.71,0-1.33-.16-1.85-.47-.52-.32-.92-.76-1.21-1.33-.29-.57-.43-1.24-.43-2.01s.14-1.49.43-2.07c.28-.58.68-1.03,1.2-1.34.52-.32,1.12-.47,1.83-.47s1.33.17,1.84.5c.51.33.89.8,1.15,1.42.26.62.38,1.35.36,2.21h-1.01v-.35c-.02-.94-.22-1.66-.61-2.14-.39-.48-.96-.72-1.7-.72s-1.38.25-1.8.76c-.42.51-.62,1.23-.62,2.17s.21,1.63.62,2.14c.42.51,1.01.76,1.77.76.52,0,.98-.12,1.37-.36.39-.24.7-.59.92-1.04l.92.36c-.29.63-.71,1.13-1.27,1.48-.56.35-1.19.52-1.9.52ZM165.26,182.74v-.83h5.57v.83h-5.57Z"/>
  <path class="cls-2" d="M174.93,186.31c-.55,0-1.01-.1-1.38-.3-.37-.2-.65-.46-.83-.79-.18-.33-.28-.69-.28-1.07s.08-.74.24-1.02c.16-.28.38-.51.65-.69.28-.18.6-.32.96-.41.37-.09.78-.17,1.23-.24.45-.07.89-.13,1.32-.18s.81-.1,1.13-.15l-.35.22c.01-.72-.13-1.25-.42-1.6s-.8-.52-1.53-.52c-.5,0-.92.11-1.27.34-.34.23-.59.58-.73,1.07l-.97-.28c.17-.65.5-1.16,1.01-1.52.5-.36,1.16-.54,1.96-.54.67,0,1.23.12,1.7.37.47.25.8.61.99,1.08.09.21.15.45.18.71.03.26.04.53.04.8v4.53h-.88v-1.83l.26.11c-.25.63-.63,1.1-1.15,1.43-.52.33-1.15.49-1.88.49ZM175.05,185.46c.46,0,.87-.08,1.21-.25.35-.17.63-.4.84-.69.21-.29.35-.62.41-.98.05-.23.08-.49.09-.77,0-.28,0-.49,0-.63l.38.2c-.34.04-.7.09-1.1.14-.39.04-.78.1-1.16.15-.38.06-.72.13-1.03.21-.21.06-.41.14-.6.25-.19.11-.35.25-.48.42-.12.18-.19.39-.19.66,0,.21.05.42.16.61.11.2.28.36.51.49.24.13.55.2.94.2Z"/>
  <path class="cls-2" d="M180.34,186.11v-7.29h.9v1.8h.1v5.49h-1ZM185.61,186.11v-3.72c0-.4-.04-.78-.11-1.12s-.2-.64-.37-.89c-.17-.25-.39-.45-.65-.59-.27-.14-.59-.21-.98-.21-.35,0-.66.06-.93.18-.27.12-.49.3-.67.52-.18.23-.32.5-.42.83-.09.32-.14.69-.14,1.11l-.7-.16c0-.75.13-1.38.39-1.88.26-.51.62-.89,1.08-1.15.46-.26.99-.39,1.58-.39.44,0,.82.07,1.14.2s.6.32.83.55c.23.23.41.49.55.79.14.29.24.61.3.94.06.33.09.66.09.99v4.01h-1Z"/>
  <path class="cls-5" d="M220.08,163.25c-3.31,0-6,2.69-6,6v24c0,3.31,2.69,6,6,6h168c3.31,0,6-2.69,6-6v-24c0-3.31-2.69-6-6-6h-168Z"/>
  <path class="cls-2" d="M263.99,186.31c2.03,0,3.55-1.05,3.55-2.85s-1.57-2.32-2.36-2.54l-1.9-.56c-.76-.22-1.73-.55-1.73-1.53s.96-1.69,2.27-1.68c1.36.01,2.43.82,2.63,2.08l1.04-.19c-.32-1.75-1.72-2.83-3.66-2.83-1.92,0-3.32,1.03-3.32,2.66,0,1.3.88,1.98,2.07,2.33l2.46.74c.67.2,1.49.57,1.49,1.57,0,1.15-1.06,1.86-2.5,1.86s-2.57-.76-2.89-2.02l-1.01.17c.33,1.73,1.83,2.8,3.86,2.8h0ZM272.74,186.31c2.22,0,3.79-1.48,3.79-3.71v-6.2h-1v6.08c0,2.02-1.53,2.9-2.79,2.9s-2.79-.88-2.79-2.9v-6.08h-1v6.2c0,2.25,1.57,3.71,3.79,3.71h0ZM278.42,186.11h.99v-3.69h2.76c.18,0,.44-.01.68-.05,1.51-.23,2.37-1.44,2.37-2.95s-.85-2.72-2.37-2.96c-.24-.04-.49-.05-.68-.05h-3.75v9.71ZM279.41,181.48v-4.13h2.73c.16,0,.4.01.6.05,1,.22,1.46,1.11,1.46,2.01s-.46,1.79-1.46,2c-.2.05-.44.06-.6.06h-2.73ZM286.58,186.11h6.07v-.95h-5.08v-3.5h4.27v-.95h-4.27v-3.36h5.08v-.95h-6.07v9.71ZM301.29,186.11l-1.92-3.93c1.09-.44,1.69-1.49,1.69-2.77,0-1.52-.85-2.72-2.37-2.96-.24-.04-.49-.05-.68-.05h-3.75v9.71h.99v-3.69h3.1l1.79,3.69h1.14ZM295.26,181.48v-4.13h2.73c.16,0,.4.01.6.05,1,.22,1.46,1.11,1.46,2.01s-.46,1.79-1.46,2c-.2.05-.44.06-.6.06h-2.73ZM302.65,181.68h4.05v-.85h-4.05v.85ZM308.45,186.11h6.07v-.95h-5.08v-3.5h4.27v-.95h-4.27v-3.36h5.08v-.95h-6.07v9.71ZM315.34,186.11h1.19l2.23-2.92,2.22,2.92h1.19l-2.85-3.68,2.79-3.6h-1.19l-2.16,2.84-2.18-2.84h-1.19l2.79,3.6-2.85,3.68ZM326.57,178.62c-1.08,0-1.9.45-2.43,1.21v-1h-.89v10.52h1v-4.11c.53.67,1.29,1.07,2.28,1.07,2.04,0,3.23-1.67,3.23-3.85s-1.19-3.84-3.19-3.84h0ZM326.43,185.39c-1.55,0-2.29-1.24-2.29-2.93s.75-2.91,2.27-2.91,2.3,1.27,2.3,2.91-.76,2.93-2.28,2.93h0ZM331.91,182.74h5.74c.07-2.57-1.19-4.12-3.35-4.12s-3.45,1.49-3.45,3.88,1.36,3.81,3.49,3.81c1.41,0,2.59-.72,3.17-2l-.92-.36c-.45.91-1.25,1.4-2.29,1.4-1.45,0-2.31-.95-2.39-2.62h0ZM334.32,179.53c1.36,0,2.13.81,2.29,2.38h-4.68c.16-1.53.99-2.38,2.39-2.38h0ZM340.6,179.3c-.21.16-.41.4-.57.67v-1.15h-.89v7.28h.99v-3.64c0-.87.12-1.81.85-2.39.53-.43,1.2-.46,1.74-.33v-.93c-.64-.16-1.55-.02-2.12.48h0Z"/>
  <path class="cls-2" d="M343.19,179.67v-.85h4.78v.85h-4.78ZM347.97,186.11c-.41.08-.81.12-1.21.1-.4-.02-.75-.1-1.07-.26-.31-.15-.55-.39-.71-.72-.13-.27-.2-.54-.21-.82-.01-.28-.02-.59-.02-.95v-6.68h.99v6.64c0,.31,0,.56.01.77,0,.21.05.39.14.54.16.3.42.48.77.54s.79.04,1.31-.04v.87Z"/>
  <path class="cls-4" d="M412.08,163.25c-3.31,0-6,2.69-6,6v24c0,3.31,2.69,6,6,6h168c3.31,0,6-2.69,6-6v-24c0-3.31-2.69-6-6-6h-168Z"/>
  <path class="cls-1" d="M446.97,186.11v-9.72h2.95c.1,0,.28,0,.53,0,.25,0,.49.02.72.05.74.1,1.35.38,1.85.82s.87,1.01,1.11,1.7c.25.69.37,1.45.37,2.27s-.12,1.59-.37,2.28c-.25.69-.62,1.25-1.11,1.7-.5.45-1.11.72-1.85.82-.23.03-.47.04-.72.05-.26,0-.43,0-.53,0h-2.95ZM448,185.16h1.92c.18,0,.38,0,.6-.02.21-.01.4-.03.55-.06.57-.1,1.03-.33,1.37-.69.35-.36.6-.81.77-1.35.16-.54.24-1.14.24-1.79s-.08-1.25-.24-1.79c-.16-.54-.42-1-.77-1.35-.35-.36-.81-.58-1.37-.68-.15-.03-.34-.05-.56-.06-.22-.01-.42-.02-.59-.02h-1.92v7.82Z"/>
  <path class="cls-1" d="M456.17,177.44v-1.11h.99v1.11h-.99ZM456.17,186.11v-7.29h.99v7.29h-.99Z"/>
  <path class="cls-1" d="M461.91,186.3c-.85,0-1.56-.18-2.11-.55-.55-.37-.89-.88-1.02-1.54l1.01-.17c.11.41.35.74.74.99.38.25.86.37,1.43.37s.99-.12,1.31-.35c.32-.23.48-.55.48-.95,0-.22-.05-.41-.15-.55-.1-.14-.31-.27-.62-.4-.31-.12-.77-.26-1.39-.43-.66-.18-1.18-.36-1.55-.54-.37-.18-.64-.39-.8-.62s-.24-.53-.24-.87c0-.41.12-.78.35-1.09.23-.31.56-.56.97-.73.41-.17.9-.26,1.44-.26s1.04.09,1.47.27c.43.18.78.43,1.05.75.27.32.42.69.47,1.11l-1.01.18c-.07-.43-.28-.77-.64-1.02-.36-.25-.81-.38-1.36-.39-.52-.01-.94.08-1.26.29-.32.21-.49.49-.49.83,0,.19.06.36.18.5.12.14.33.27.64.39.31.12.75.25,1.32.4.67.17,1.2.35,1.58.54.38.19.65.41.82.67.16.26.24.57.24.95,0,.69-.26,1.23-.77,1.62-.51.39-1.21.59-2.11.59Z"/>
  <path class="cls-1" d="M469.3,186.31c-.73,0-1.35-.16-1.86-.49-.51-.33-.89-.78-1.16-1.36-.26-.58-.4-1.24-.41-1.99,0-.77.15-1.44.42-2.02.27-.58.66-1.03,1.17-1.35.51-.32,1.12-.48,1.85-.48s1.38.18,1.93.54c.55.36.92.85,1.12,1.48l-.97.31c-.17-.44-.44-.77-.81-1.02-.37-.24-.79-.36-1.27-.36-.54,0-.98.12-1.33.37-.35.25-.61.59-.78,1.02s-.26.94-.26,1.51c0,.87.21,1.57.61,2.1.4.53.99.79,1.77.79.5,0,.92-.11,1.27-.34.35-.23.61-.56.79-1l1,.3c-.27.65-.67,1.14-1.19,1.48-.52.34-1.15.51-1.87.51Z"/>
  <path class="cls-1" d="M476.6,186.31c-.72,0-1.34-.16-1.86-.49-.51-.33-.91-.78-1.18-1.36-.28-.58-.41-1.25-.41-2s.14-1.44.42-2.01c.28-.58.68-1.03,1.19-1.35.52-.32,1.13-.48,1.84-.48s1.35.16,1.87.49.91.78,1.18,1.36.41,1.24.41,2-.14,1.44-.41,2.01-.67,1.03-1.19,1.35c-.52.32-1.14.49-1.86.49ZM476.6,185.36c.81,0,1.41-.27,1.81-.81.4-.54.59-1.24.59-2.1s-.2-1.58-.6-2.11c-.4-.52-1-.78-1.81-.78-.54,0-.99.12-1.35.37s-.62.58-.79,1.02c-.17.43-.26.93-.26,1.5,0,.88.2,1.58.61,2.11.41.53,1,.79,1.79.79Z"/>
  <path class="cls-1" d="M483.24,186.11l-2.65-7.29h1.01l2.15,5.99,2.14-5.99h1.02l-2.65,7.29h-1.03Z"/>
  <path class="cls-1" d="M490.94,186.31c-.71,0-1.33-.16-1.85-.47-.52-.32-.92-.76-1.21-1.33s-.43-1.24-.43-2.01.14-1.49.42-2.07c.28-.58.68-1.03,1.2-1.34.52-.32,1.12-.47,1.83-.47s1.33.17,1.84.5c.51.33.89.8,1.15,1.42.26.62.38,1.35.36,2.21h-1.01v-.35c-.02-.94-.22-1.66-.61-2.14-.39-.48-.96-.72-1.7-.72-.78,0-1.38.25-1.8.76-.42.51-.62,1.23-.62,2.17s.21,1.63.62,2.14c.42.51,1.01.76,1.77.76.52,0,.98-.12,1.37-.36.39-.24.7-.59.92-1.04l.92.36c-.29.63-.71,1.13-1.27,1.48s-1.19.52-1.9.52ZM488.15,182.74v-.83h5.57v.83h-5.57Z"/>
  <path class="cls-1" d="M495.75,186.11v-7.29h.89v1.75l-.18-.23c.08-.22.19-.42.32-.6.13-.18.27-.33.43-.45.19-.17.41-.29.66-.38s.51-.14.76-.16.49,0,.7.06v.93c-.27-.07-.56-.08-.87-.05-.31.04-.61.16-.87.38-.24.19-.43.42-.55.68-.12.26-.2.54-.24.84-.04.29-.06.59-.06.87v3.64h-.99Z"/>
  <path class="cls-1" d="M501.65,189.35l1.41-3.83.02,1.13-3.19-7.84h1.05l2.62,6.55h-.43l2.42-6.55h1.01l-3.92,10.53h-.99Z"/>
  <path class="cls-1" d="M507.74,186.11v-9.72h3.75c.54,0,1.02.11,1.42.34.41.23.72.53.95.91.22.38.34.8.34,1.26,0,.52-.14.99-.42,1.39s-.65.69-1.12.85v-.33c.62.18,1.11.5,1.47.95.36.45.54.99.54,1.63,0,.56-.12,1.05-.36,1.45s-.57.72-1.01.94c-.43.22-.93.33-1.5.33h-4.06ZM508.73,180.53h2.75c.31,0,.59-.07.85-.21.26-.14.46-.34.61-.58.15-.25.23-.53.23-.86,0-.46-.16-.83-.48-1.12-.32-.29-.72-.43-1.21-.43h-2.75v3.21ZM508.73,185.16h2.82c.4,0,.75-.07,1.07-.21.31-.14.56-.34.75-.6.18-.26.27-.58.27-.95s-.08-.68-.25-.97c-.17-.29-.39-.52-.68-.69-.29-.17-.61-.26-.98-.26h-3v3.69Z"/>
  <path class="cls-1" d="M519.09,186.31c-.71,0-1.33-.16-1.85-.47-.52-.32-.92-.76-1.21-1.33s-.43-1.24-.43-2.01.14-1.49.42-2.07c.28-.58.68-1.03,1.2-1.34.52-.32,1.12-.47,1.83-.47s1.33.17,1.84.5c.51.33.89.8,1.15,1.42.26.62.38,1.35.36,2.21h-1.01v-.35c-.02-.94-.22-1.66-.61-2.14-.39-.48-.96-.72-1.7-.72-.78,0-1.38.25-1.8.76-.42.51-.62,1.23-.62,2.17s.21,1.63.62,2.14c.42.51,1.01.76,1.77.76.52,0,.98-.12,1.37-.36.39-.24.7-.59.92-1.04l.92.36c-.29.63-.71,1.13-1.27,1.48s-1.19.52-1.9.52ZM516.31,182.74v-.83h5.57v.83h-5.57Z"/>
  <path class="cls-1" d="M523.6,186.11v-7.29h.9v1.8h.1v5.49h-1ZM528.87,186.11v-3.72c0-.4-.04-.78-.11-1.12-.08-.34-.2-.64-.37-.89-.17-.25-.39-.45-.66-.59-.27-.14-.59-.21-.97-.21-.35,0-.66.06-.93.18-.27.12-.49.3-.67.52-.18.23-.32.5-.42.83s-.14.69-.14,1.11l-.7-.16c0-.75.13-1.38.39-1.88.26-.51.62-.89,1.08-1.15.46-.26.99-.39,1.58-.39.44,0,.82.07,1.14.2s.6.32.83.55.41.49.55.79.24.61.3.94c.06.33.09.66.09.99v4.01h-1Z"/>
  <path class="cls-1" d="M534.59,186.31c-.73,0-1.35-.16-1.86-.49-.51-.33-.89-.78-1.16-1.36-.26-.58-.4-1.24-.41-1.99,0-.77.15-1.44.42-2.02.27-.58.66-1.03,1.17-1.35.51-.32,1.12-.48,1.85-.48s1.38.18,1.93.54c.55.36.92.85,1.12,1.48l-.97.31c-.17-.44-.44-.77-.81-1.02-.37-.24-.79-.36-1.27-.36-.54,0-.98.12-1.33.37-.35.25-.61.59-.78,1.02s-.26.94-.26,1.51c0,.87.21,1.57.61,2.1.4.53.99.79,1.77.79.5,0,.92-.11,1.27-.34.35-.23.61-.56.79-1l1,.3c-.27.65-.67,1.14-1.19,1.48-.52.34-1.15.51-1.87.51Z"/>
  <path class="cls-1" d="M539.04,186.11v-9.72h.9v5.49h.1v4.23h-1ZM544.31,186.11v-3.72c0-.4-.04-.78-.11-1.12-.08-.34-.2-.64-.37-.89-.17-.25-.39-.45-.66-.59-.27-.14-.59-.21-.97-.21-.35,0-.66.06-.93.18-.27.12-.49.3-.67.52-.18.23-.32.5-.42.83s-.14.69-.14,1.11l-.7-.16c0-.75.13-1.38.39-1.88.26-.51.62-.89,1.08-1.15.46-.26.99-.39,1.58-.39.44,0,.82.07,1.14.2s.6.32.83.55.41.49.55.79.24.61.3.94c.06.33.09.66.09.99v4.01h-1Z"/>
  <path class="cls-5" d="M604.08,163.25c-3.31,0-6,2.69-6,6v24c0,3.31,2.69,6,6,6h168c3.31,0,6-2.69,6-6v-24c0-3.31-2.69-6-6-6h-168Z"/>
  <path class="cls-2" d="M654.93,186.11h6.07v-.95h-5.08v-3.5h4.27v-.95h-4.27v-3.36h5.08v-.95h-6.07v9.71ZM667.32,182.04c.94-.84,1.38-1.52,1.38-2.74,0-1.73-1.34-3.1-3.11-3.1s-3.17,1.32-3.17,3.09h1.01c-.01-1.14.9-2.14,2.14-2.14s2.12.94,2.12,2.14c0,.67-.19,1.27-.94,1.94l-4.39,3.97v.9s6.33,0,6.33,0v-.95h-4.83l3.45-3.12ZM670.32,186.11h6.07v-.95h-5.08v-3.5h4.27v-.95h-4.27v-3.36h5.08v-.95h-6.07v9.71ZM677.88,181.68h4.05v-.85h-4.05v.85ZM689,180.96c.7-.4,1.14-1.17,1.14-2.06,0-1.38-1.08-2.5-2.7-2.5h-3.75v9.71h4.06c1.71,0,2.87-1.04,2.87-2.72,0-1.13-.6-1.99-1.61-2.43h0ZM684.68,177.34h2.74c.98,0,1.69.63,1.69,1.55,0,.97-.76,1.65-1.69,1.65h-2.74v-3.2ZM687.5,185.16h-2.82v-3.68h3c1.09,0,1.9.85,1.9,1.92s-.9,1.76-2.08,1.76h0ZM692.61,182.74h5.74c.07-2.57-1.19-4.12-3.35-4.12s-3.45,1.49-3.45,3.88,1.36,3.81,3.49,3.81c1.41,0,2.59-.72,3.17-2l-.92-.36c-.45.91-1.25,1.4-2.29,1.4-1.45,0-2.31-.95-2.39-2.62h0ZM695.03,179.53c1.36,0,2.13.81,2.29,2.38h-4.68c.16-1.53.99-2.38,2.39-2.38h0Z"/>
  <path class="cls-2" d="M699.65,186.11v-7.29h.9v1.8h.1v5.49h-1ZM704.92,186.11v-3.72c0-.4-.04-.78-.11-1.12-.08-.34-.2-.64-.37-.89-.17-.25-.39-.45-.66-.59-.27-.14-.59-.21-.97-.21-.35,0-.66.06-.93.18-.27.12-.49.3-.67.52-.18.23-.32.5-.42.83s-.14.69-.14,1.11l-.7-.16c0-.75.13-1.38.39-1.88.26-.51.62-.89,1.08-1.15.46-.26.99-.39,1.58-.39.44,0,.82.07,1.14.2s.6.32.83.55.41.49.55.79.24.61.3.94c.06.33.09.66.09.99v4.01h-1Z"/>
  <path class="cls-2" d="M710.64,186.31c-.73,0-1.35-.16-1.86-.49-.51-.33-.89-.78-1.16-1.36-.26-.58-.4-1.24-.41-1.99,0-.77.15-1.44.42-2.02.27-.58.66-1.03,1.17-1.35.51-.32,1.12-.48,1.85-.48s1.38.18,1.93.54c.55.36.92.85,1.12,1.48l-.97.31c-.17-.44-.44-.77-.81-1.02-.37-.24-.79-.36-1.27-.36-.54,0-.98.12-1.33.37-.35.25-.61.59-.78,1.02s-.26.94-.26,1.51c0,.87.21,1.57.61,2.1.4.53.99.79,1.77.79.5,0,.92-.11,1.27-.34.35-.23.61-.56.79-1l1,.3c-.27.65-.67,1.14-1.19,1.48-.52.34-1.15.51-1.87.51Z"/>
  <path class="cls-2" d="M715.08,186.11v-9.72h.9v5.49h.1v4.23h-1ZM720.36,186.11v-3.72c0-.4-.04-.78-.11-1.12-.08-.34-.2-.64-.37-.89-.17-.25-.39-.45-.66-.59-.27-.14-.59-.21-.97-.21-.35,0-.66.06-.93.18-.27.12-.49.3-.67.52-.18.23-.32.5-.42.83s-.14.69-.14,1.11l-.7-.16c0-.75.13-1.38.39-1.88.26-.51.62-.89,1.08-1.15.46-.26.99-.39,1.58-.39.44,0,.82.07,1.14.2s.6.32.83.55.41.49.55.79.24.61.3.94c.06.33.09.66.09.99v4.01h-1Z"/>
  <path class="cls-5" d="M28.08,259.25c-3.31,0-6,2.69-6,6v24c0,3.31,2.69,6,6,6h168c3.31,0,6-2.69,6-6v-24c0-3.31-2.69-6-6-6H28.08Z"/>
  <path class="cls-2" d="M67.84,282.31c-.68,0-1.29-.11-1.83-.34-.54-.23-.99-.55-1.34-.97-.35-.42-.58-.92-.69-1.49l1.01-.17c.16.63.5,1.12,1.03,1.48.52.36,1.15.54,1.87.54.48,0,.9-.08,1.28-.23.38-.15.67-.37.89-.64.22-.28.32-.61.32-.99,0-.25-.04-.47-.13-.64-.09-.18-.21-.33-.36-.44s-.31-.21-.49-.29c-.18-.08-.35-.14-.51-.19l-2.46-.74c-.3-.08-.57-.19-.82-.33s-.47-.29-.66-.48c-.19-.19-.33-.41-.44-.66s-.16-.54-.16-.86c0-.55.14-1.02.43-1.42s.68-.71,1.18-.92,1.07-.32,1.71-.32c.65,0,1.23.12,1.74.34s.93.56,1.27.98c.33.43.55.93.66,1.51l-1.04.19c-.07-.42-.22-.79-.47-1.1-.24-.31-.55-.55-.93-.72-.38-.17-.79-.25-1.24-.26-.44,0-.82.07-1.16.22-.34.15-.61.34-.81.6-.2.25-.3.54-.3.86s.09.59.27.79.41.35.67.47c.27.11.53.2.78.28l1.9.56c.2.05.43.13.7.23.27.1.53.25.78.43.25.19.46.43.63.73.17.3.25.68.25,1.15s-.09.85-.27,1.21-.43.65-.75.9-.7.43-1.13.56c-.43.13-.9.19-1.41.19Z"/>
  <path class="cls-2" d="M75.81,282.31c-.73,0-1.35-.16-1.86-.49-.51-.33-.89-.78-1.16-1.36s-.4-1.24-.41-1.99c0-.77.15-1.44.42-2.02s.66-1.03,1.17-1.35c.51-.32,1.12-.48,1.85-.48s1.38.18,1.93.54c.55.36.92.85,1.12,1.48l-.97.31c-.17-.44-.44-.77-.81-1.02-.37-.24-.8-.36-1.27-.36-.54,0-.98.12-1.33.37s-.61.59-.78,1.02c-.17.44-.26.94-.26,1.51,0,.87.21,1.57.61,2.1.4.53.99.79,1.77.79.49,0,.92-.11,1.27-.34.35-.23.61-.56.79-1l1,.3c-.27.65-.67,1.14-1.19,1.48-.52.34-1.15.51-1.87.51Z"/>
  <path class="cls-2" d="M80.25,282.11v-9.72h.9v5.49h.1v4.23h-1ZM85.53,282.11v-3.72c0-.4-.04-.78-.11-1.12s-.2-.64-.37-.89c-.17-.25-.39-.45-.65-.59-.27-.14-.59-.21-.98-.21-.35,0-.66.06-.93.18-.27.12-.49.3-.67.52-.18.23-.32.5-.42.83-.09.32-.14.69-.14,1.11l-.7-.16c0-.75.13-1.38.39-1.88.26-.51.62-.89,1.08-1.15.46-.26.99-.39,1.58-.39.44,0,.82.07,1.14.2s.6.32.83.55c.23.23.41.49.55.79.14.29.24.61.3.94.06.33.09.66.09.99v4.01h-1Z"/>
  <path class="cls-2" d="M91.32,282.31c-.72,0-1.34-.16-1.86-.49-.51-.33-.91-.78-1.18-1.36-.27-.58-.41-1.25-.41-2s.14-1.44.42-2.01c.28-.58.68-1.03,1.19-1.35.52-.32,1.13-.48,1.84-.48s1.35.16,1.87.49.91.78,1.18,1.36c.27.58.41,1.24.41,2s-.14,1.44-.41,2.01c-.27.58-.67,1.03-1.19,1.35-.52.32-1.14.49-1.86.49ZM91.32,281.36c.81,0,1.41-.27,1.81-.81.4-.54.59-1.24.59-2.1s-.2-1.58-.6-2.11c-.4-.52-1-.78-1.81-.78-.54,0-.99.12-1.35.37-.35.25-.62.58-.79,1.02-.17.43-.26.93-.26,1.5,0,.88.2,1.58.61,2.11.4.53,1,.79,1.79.79Z"/>
  <path class="cls-2" d="M96.4,282.11v-9.92h.99v9.92h-.99Z"/>
  <path class="cls-2" d="M101.5,282.31c-.55,0-1.01-.1-1.38-.3-.37-.2-.65-.46-.83-.79-.18-.33-.28-.69-.28-1.07s.08-.74.24-1.02c.16-.28.38-.51.65-.69.28-.18.6-.32.96-.41.37-.09.78-.17,1.23-.24.45-.07.89-.13,1.32-.18s.81-.1,1.13-.15l-.35.22c.01-.72-.13-1.25-.42-1.6s-.8-.52-1.53-.52c-.5,0-.92.11-1.27.34-.34.23-.59.58-.73,1.07l-.97-.28c.17-.65.5-1.16,1.01-1.52.5-.36,1.16-.54,1.96-.54.67,0,1.23.12,1.7.37.47.25.8.61.99,1.08.09.21.15.45.18.71.03.26.04.53.04.8v4.53h-.88v-1.83l.26.11c-.25.63-.63,1.1-1.15,1.43-.52.33-1.15.49-1.88.49ZM101.62,281.46c.46,0,.87-.08,1.21-.25.35-.17.63-.4.84-.69.21-.29.35-.62.41-.98.05-.23.08-.49.09-.77,0-.28,0-.49,0-.63l.38.2c-.34.04-.7.09-1.1.14-.39.04-.78.1-1.16.15-.38.06-.72.13-1.03.21-.21.06-.41.14-.6.25-.19.11-.35.25-.48.42-.12.18-.19.39-.19.66,0,.21.05.42.16.61.11.2.28.36.51.49.24.13.55.2.94.2Z"/>
  <path class="cls-2" d="M106.92,282.11v-7.29h.89v1.75l-.18-.23c.08-.22.19-.42.32-.6.13-.18.27-.33.43-.45.19-.17.41-.29.66-.38s.51-.14.76-.16c.26-.02.49,0,.7.06v.93c-.27-.07-.56-.08-.87-.05-.32.04-.61.16-.87.38-.24.19-.43.42-.55.68-.12.26-.2.54-.24.84-.04.29-.06.59-.06.87v3.64h-.99Z"/>
  <path class="cls-2" d="M115.71,282.31c-.97,0-1.78-.21-2.45-.64-.67-.43-1.17-1.02-1.51-1.79s-.51-1.64-.51-2.63.17-1.87.51-2.63c.34-.76.85-1.36,1.51-1.79.67-.43,1.48-.64,2.45-.64s1.79.21,2.45.64c.66.43,1.17,1.03,1.51,1.79.34.76.52,1.64.52,2.63s-.17,1.87-.52,2.63-.85,1.36-1.51,1.79c-.66.43-1.48.64-2.45.64ZM115.71,281.36c.76,0,1.4-.17,1.9-.52.51-.35.89-.83,1.14-1.45.25-.62.38-1.33.38-2.14s-.13-1.52-.38-2.14c-.25-.62-.64-1.1-1.14-1.44s-1.14-.52-1.9-.53c-.76,0-1.39.17-1.9.52s-.88.83-1.14,1.45c-.25.62-.38,1.33-.39,2.14,0,.81.12,1.52.37,2.14s.64,1.1,1.14,1.44c.51.35,1.14.53,1.9.53ZM119.4,282.3l-2.59-2.58.67-.67,2.58,2.58-.66.67Z"/>
  <path class="cls-2" d="M120.59,282.11l3.35-9.72h1.32l3.35,9.72h-1.03l-3.18-9.17h.39l-3.16,9.17h-1.03ZM122.08,279.75v-.93h5.02v.93h-5.02Z"/>
  <path class="cls-2" d="M129.69,277.68h4.05v-.85h-4.05v.85ZM139.43,282.31c2.25,0,3.7-1.25,4.24-3.19l-1.01-.26c-.41,1.53-1.48,2.5-3.22,2.5-2.28,0-3.44-1.68-3.43-4.11.02-2.43,1.15-4.11,3.43-4.11,1.74,0,2.81.97,3.22,2.5l1.01-.26c-.53-1.94-1.98-3.19-4.24-3.19-2.9,0-4.47,2.07-4.47,5.06s1.57,5.06,4.47,5.06h0Z"/>
  <path class="cls-2" d="M148.93,282.31c-.68,0-1.29-.11-1.83-.34-.54-.23-.99-.55-1.34-.97-.35-.42-.58-.92-.69-1.49l1.01-.17c.16.63.5,1.12,1.03,1.48.52.36,1.15.54,1.87.54.48,0,.9-.08,1.28-.23.38-.15.67-.37.89-.64.22-.28.32-.61.32-.99,0-.25-.04-.47-.13-.64-.09-.18-.21-.33-.36-.44s-.31-.21-.49-.29c-.18-.08-.35-.14-.51-.19l-2.46-.74c-.3-.08-.57-.19-.82-.33s-.47-.29-.66-.48c-.19-.19-.33-.41-.44-.66s-.16-.54-.16-.86c0-.55.14-1.02.43-1.42s.68-.71,1.18-.92,1.07-.32,1.71-.32c.65,0,1.23.12,1.74.34s.93.56,1.27.98c.33.43.55.93.66,1.51l-1.04.19c-.07-.42-.22-.79-.47-1.1-.24-.31-.55-.55-.93-.72-.38-.17-.79-.25-1.24-.26-.44,0-.82.07-1.16.22-.34.15-.61.34-.81.6-.2.25-.3.54-.3.86s.09.59.27.79.41.35.67.47c.27.11.53.2.78.28l1.9.56c.2.05.43.13.7.23.27.1.53.25.78.43.25.19.46.43.63.73.17.3.25.68.25,1.15s-.09.85-.27,1.21-.43.65-.75.9-.7.43-1.13.56c-.43.13-.9.19-1.41.19Z"/>
  <path class="cls-2" d="M153.61,282.1v-.9s4.4-3.97,4.4-3.97c.38-.34.63-.67.75-.98.12-.31.19-.63.19-.97,0-.4-.09-.76-.28-1.09s-.44-.58-.76-.77c-.32-.19-.68-.29-1.07-.29s-.78.1-1.11.3c-.32.2-.58.46-.77.78-.19.32-.28.68-.27,1.06h-1.01c0-.59.14-1.12.42-1.59.28-.47.66-.84,1.13-1.1s1.02-.4,1.62-.4,1.12.14,1.59.42c.47.28.84.65,1.11,1.12.27.47.41.99.41,1.57,0,.41-.05.76-.15,1.07-.1.31-.25.59-.45.86-.21.26-.46.53-.78.81l-3.9,3.52-.16-.41h5.43v.95h-6.35Z"/>
  <path class="cls-5" d="M220.08,259.25c-3.31,0-6,2.69-6,6v24c0,3.31,2.69,6,6,6h168c3.31,0,6-2.69,6-6v-24c0-3.31-2.69-6-6-6h-168Z"/>
  <path class="cls-2" d="M284.11,282.11v-9.72h2.95c.1,0,.28,0,.53,0,.25,0,.49.02.72.05.74.1,1.35.38,1.85.82.49.45.87,1.01,1.11,1.7.25.69.37,1.45.37,2.27s-.12,1.59-.37,2.28c-.25.69-.62,1.25-1.11,1.7-.5.45-1.11.72-1.85.82-.23.03-.47.04-.72.05-.26,0-.43,0-.53,0h-2.95ZM285.13,281.16h1.92c.18,0,.38,0,.6-.02.21-.01.4-.03.55-.06.57-.1,1.02-.33,1.37-.69.35-.36.6-.81.77-1.35.16-.54.24-1.14.24-1.79s-.08-1.25-.24-1.79c-.16-.54-.42-1-.77-1.35s-.81-.58-1.37-.68c-.15-.03-.34-.05-.56-.06-.22-.01-.42-.02-.59-.02h-1.92v7.82Z"/>
  <path class="cls-2" d="M296.55,282.31c-.68,0-1.29-.11-1.83-.34-.54-.23-.99-.55-1.34-.97-.35-.42-.58-.92-.69-1.49l1.01-.17c.16.63.5,1.12,1.03,1.48.52.36,1.15.54,1.87.54.48,0,.9-.08,1.28-.23.38-.15.67-.37.89-.64.22-.28.32-.61.32-.99,0-.25-.04-.47-.13-.64-.09-.18-.21-.33-.36-.44s-.31-.21-.49-.29c-.18-.08-.35-.14-.51-.19l-2.46-.74c-.3-.08-.57-.19-.82-.33s-.47-.29-.66-.48c-.19-.19-.33-.41-.44-.66s-.16-.54-.16-.86c0-.55.14-1.02.43-1.42s.68-.71,1.18-.92,1.07-.32,1.71-.32c.65,0,1.23.12,1.74.34s.93.56,1.27.98c.33.43.55.93.66,1.51l-1.04.19c-.07-.42-.22-.79-.47-1.1-.24-.31-.55-.55-.93-.72-.38-.17-.79-.25-1.24-.26-.44,0-.82.07-1.16.22-.34.15-.61.34-.81.6-.2.25-.3.54-.3.86s.09.59.27.79.41.35.67.47c.27.11.53.2.78.28l1.9.56c.2.05.43.13.7.23.27.1.53.25.78.43.25.19.46.43.63.73.17.3.25.68.25,1.15s-.09.85-.27,1.21-.43.65-.75.9-.7.43-1.13.56c-.43.13-.9.19-1.41.19Z"/>
  <path class="cls-2" d="M305.89,282.11v-8.61l-1.83,1.1v-1.11l1.83-1.09h1.01v9.72h-1.01Z"/>
  <path class="cls-2" d="M312.63,282.31c-.6,0-1.14-.14-1.62-.42-.48-.28-.86-.66-1.14-1.14-.28-.48-.42-1.02-.42-1.62v-3.78c0-.6.14-1.14.42-1.62.28-.48.66-.86,1.14-1.14.48-.28,1.02-.42,1.62-.42s1.14.14,1.62.42c.48.28.86.66,1.14,1.14.28.48.42,1.02.42,1.62v3.78c0,.6-.14,1.14-.42,1.62-.28.48-.66.86-1.14,1.14-.48.28-1.02.42-1.62.42ZM312.63,281.35c.4,0,.76-.1,1.09-.29.33-.2.59-.46.78-.79.19-.33.29-.69.29-1.09v-3.87c0-.4-.1-.77-.29-1.09-.19-.33-.45-.59-.78-.79-.33-.2-.69-.29-1.09-.29s-.77.1-1.09.29c-.33.2-.59.46-.78.79-.19.33-.29.69-.29,1.09v3.87c0,.4.1.76.29,1.09.19.33.45.59.78.79.33.2.69.29,1.09.29Z"/>
  <path class="cls-2" d="M320.87,282.31c-.6,0-1.14-.14-1.62-.42-.48-.28-.86-.66-1.14-1.14-.28-.48-.42-1.02-.42-1.62v-3.78c0-.6.14-1.14.42-1.62.28-.48.66-.86,1.14-1.14.48-.28,1.02-.42,1.62-.42s1.14.14,1.62.42c.48.28.86.66,1.14,1.14.28.48.42,1.02.42,1.62v3.78c0,.6-.14,1.14-.42,1.62-.28.48-.66.86-1.14,1.14-.48.28-1.02.42-1.62.42ZM320.87,281.35c.4,0,.76-.1,1.09-.29.33-.2.59-.46.78-.79.19-.33.29-.69.29-1.09v-3.87c0-.4-.1-.77-.29-1.09-.19-.33-.45-.59-.78-.79-.33-.2-.69-.29-1.09-.29s-.77.1-1.09.29c-.33.2-.59.46-.78.79-.19.33-.29.69-.29,1.09v3.87c0,.4.1.76.29,1.09.19.33.45.59.78.79.33.2.69.29,1.09.29Z"/>
  <path class="cls-5" d="M28.08,211.25c-3.31,0-6,2.69-6,6v24c0,3.31,2.69,6,6,6h168c3.31,0,6-2.69,6-6v-24c0-3.31-2.69-6-6-6H28.08Z"/>
  <path class="cls-2" d="M40.87,234.12v-9.72h.99v8.77h4.62v.95h-5.61Z"/>
  <path class="cls-2" d="M47.77,225.44v-1.11h.99v1.11h-.99ZM47.77,234.12v-7.29h.99v7.29h-.99Z"/>
  <path class="cls-2" d="M49.97,227.68v-.85h4.78v.85h-4.78ZM54.75,234.12c-.41.08-.81.12-1.21.1-.4-.02-.75-.1-1.07-.26-.31-.15-.55-.39-.71-.72-.13-.27-.2-.54-.21-.82-.01-.28-.02-.59-.02-.95v-6.68h.99v6.64c0,.31,0,.56.01.77,0,.21.05.39.14.54.16.3.42.48.77.54s.79.04,1.31-.04v.87Z"/>
  <path class="cls-2" d="M60.12,234.32c-.97,0-1.78-.21-2.45-.64-.67-.43-1.17-1.02-1.51-1.79s-.51-1.64-.51-2.63.17-1.87.51-2.63c.34-.76.85-1.36,1.51-1.79.67-.43,1.48-.64,2.45-.64s1.79.21,2.45.64c.66.43,1.17,1.03,1.51,1.79.34.76.52,1.64.52,2.63s-.17,1.87-.52,2.63-.85,1.36-1.51,1.79c-.66.43-1.48.64-2.45.64ZM60.12,233.37c.76,0,1.4-.17,1.9-.52.51-.35.89-.83,1.14-1.45.25-.62.38-1.33.38-2.14s-.13-1.52-.38-2.14c-.25-.62-.64-1.1-1.14-1.44s-1.14-.52-1.9-.53c-.76,0-1.39.17-1.9.52s-.88.83-1.14,1.45c-.25.62-.38,1.33-.39,2.14,0,.81.12,1.52.37,2.14s.64,1.1,1.14,1.44c.51.35,1.14.53,1.9.53ZM63.82,234.31l-2.59-2.58.67-.67,2.58,2.58-.66.67Z"/>
  <path class="cls-2" d="M65.01,234.12l3.35-9.72h1.32l3.35,9.72h-1.03l-3.18-9.17h.39l-3.16,9.17h-1.03ZM66.5,231.76v-.93h5.02v.93h-5.02Z"/>
  <path class="cls-2" d="M73.97,234.11v-.9s4.4-3.97,4.4-3.97c.38-.34.63-.67.75-.98.12-.31.19-.63.19-.97,0-.4-.09-.76-.28-1.09s-.44-.58-.76-.77c-.32-.19-.68-.29-1.07-.29s-.78.1-1.11.3c-.32.2-.58.46-.77.78-.19.32-.28.68-.27,1.06h-1.01c0-.59.14-1.12.42-1.59.28-.47.66-.84,1.13-1.1s1.02-.4,1.62-.4,1.12.14,1.59.42c.47.28.84.65,1.11,1.12.27.47.41.99.41,1.57,0,.41-.05.76-.15,1.07-.1.31-.25.59-.45.86-.21.26-.46.53-.78.81l-3.9,3.52-.16-.41h5.43v.95h-6.35Z"/>
  <path class="cls-2" d="M81.8,230.29v-.85h4.05v.85h-4.05Z"/>
  <path class="cls-2" d="M87.6,234.12v-9.72h5.58v.99h-4.59v3.38h3.78v.99h-3.78v4.37h-.99Z"/>
  <path class="cls-2" d="M97.19,234.3c-.44,0-.82-.07-1.14-.2-.33-.13-.6-.32-.83-.55s-.41-.49-.55-.79c-.14-.29-.24-.61-.3-.94-.06-.33-.09-.66-.09-.99v-4.01h1v3.72c0,.4.04.77.11,1.11.08.34.2.64.37.89.17.25.39.45.65.59s.59.21.98.21c.35,0,.66-.06.93-.18.27-.12.49-.3.67-.52.18-.23.32-.5.42-.83.09-.33.14-.69.14-1.1l.7.16c0,.75-.13,1.38-.39,1.88-.26.51-.62.89-1.08,1.15-.46.26-.99.39-1.58.39ZM99.64,234.12v-1.8h-.1v-5.49h.99v7.29h-.89Z"/>
  <path class="cls-2" d="M102.55,234.12v-9.92h.99v9.92h-.99Z"/>
  <path class="cls-2" d="M105.7,234.12v-9.92h.99v9.92h-.99Z"/>
  <path class="cls-2" d="M111.31,234.12v-8.77h-3.4v-.95h7.78v.95h-3.4v8.77h-.99Z"/>
  <path class="cls-2" d="M118.78,234.32c-.71,0-1.33-.16-1.85-.47-.52-.32-.92-.76-1.21-1.33-.29-.57-.43-1.24-.43-2.01s.14-1.49.43-2.07c.28-.58.68-1.03,1.2-1.34.52-.32,1.12-.47,1.83-.47s1.33.17,1.84.5c.51.33.89.8,1.15,1.42.26.62.38,1.35.36,2.21h-1.01v-.35c-.02-.94-.22-1.66-.61-2.14-.39-.48-.96-.72-1.7-.72s-1.38.25-1.8.76c-.42.51-.62,1.23-.62,2.17s.21,1.63.62,2.14c.42.51,1.01.76,1.77.76.52,0,.98-.12,1.37-.36.39-.24.7-.59.92-1.04l.92.36c-.29.63-.71,1.13-1.27,1.48-.56.35-1.19.52-1.9.52ZM115.99,230.75v-.83h5.57v.83h-5.57Z"/>
  <path class="cls-2" d="M122.51,234.12l2.85-3.69-2.79-3.6h1.19l2.18,2.84,2.16-2.84h1.19l-2.79,3.6,2.86,3.69h-1.19l-2.22-2.92-2.23,2.92h-1.19Z"/>
  <path class="cls-2" d="M129.62,227.68v-.85h4.78v.85h-4.78ZM134.4,234.12c-.41.08-.81.12-1.21.1-.4-.02-.75-.1-1.07-.26-.31-.15-.55-.39-.71-.72-.13-.27-.2-.54-.21-.82-.01-.28-.02-.59-.02-.95v-6.68h.99v6.64c0,.31,0,.56.01.77,0,.21.05.39.14.54.16.3.42.48.77.54s.79.04,1.31-.04v.87Z"/>
  <path class="cls-2" d="M135.7,230.29v-.85h4.05v.85h-4.05Z"/>
  <path class="cls-2" d="M144.88,234.32c-.68,0-1.29-.11-1.83-.34-.54-.23-.99-.55-1.34-.97-.35-.42-.58-.92-.69-1.49l1.01-.17c.16.63.5,1.12,1.03,1.48.52.36,1.15.54,1.87.54.48,0,.9-.08,1.28-.23.38-.15.67-.37.89-.64.22-.28.32-.61.32-.99,0-.25-.04-.47-.13-.64-.09-.18-.21-.33-.36-.44s-.31-.21-.49-.29c-.18-.08-.35-.14-.51-.19l-2.46-.74c-.3-.08-.57-.19-.82-.33s-.47-.29-.66-.48c-.19-.19-.33-.41-.44-.66s-.16-.54-.16-.86c0-.55.14-1.02.43-1.42s.68-.71,1.18-.92,1.07-.32,1.71-.32c.65,0,1.23.12,1.74.34s.93.56,1.27.98c.33.43.55.93.66,1.51l-1.04.19c-.07-.42-.22-.79-.47-1.1-.24-.31-.55-.55-.93-.72-.38-.17-.79-.25-1.24-.26-.44,0-.82.07-1.16.22-.34.15-.61.34-.81.6-.2.25-.3.54-.3.86s.09.59.27.79.41.35.67.47c.27.11.53.2.78.28l1.9.56c.2.05.43.13.7.23.27.1.53.25.78.43.25.19.46.43.63.73.17.3.25.68.25,1.15s-.09.85-.27,1.21-.43.65-.75.9-.7.43-1.13.56c-.43.13-.9.19-1.41.19Z"/>
  <path class="cls-2" d="M152.92,234.32c-.71,0-1.33-.16-1.85-.47-.52-.32-.92-.76-1.21-1.33-.29-.57-.43-1.24-.43-2.01s.14-1.49.43-2.07c.28-.58.68-1.03,1.2-1.34.52-.32,1.12-.47,1.83-.47s1.33.17,1.84.5c.51.33.89.8,1.15,1.42.26.62.38,1.35.36,2.21h-1.01v-.35c-.02-.94-.22-1.66-.61-2.14-.39-.48-.96-.72-1.7-.72s-1.38.25-1.8.76c-.42.51-.62,1.23-.62,2.17s.21,1.63.62,2.14c.42.51,1.01.76,1.77.76.52,0,.98-.12,1.37-.36.39-.24.7-.59.92-1.04l.92.36c-.29.63-.71,1.13-1.27,1.48-.56.35-1.19.52-1.9.52ZM150.13,230.75v-.83h5.57v.83h-5.57Z"/>
  <path class="cls-2" d="M159.81,234.32c-.55,0-1.01-.1-1.38-.3-.37-.2-.65-.46-.83-.79-.18-.33-.28-.69-.28-1.07s.08-.74.24-1.02c.16-.28.38-.51.65-.69.28-.18.6-.32.96-.41.37-.09.78-.17,1.23-.24.45-.07.89-.13,1.32-.18s.81-.1,1.13-.15l-.35.22c.01-.72-.13-1.25-.42-1.6s-.8-.52-1.53-.52c-.5,0-.92.11-1.27.34-.34.23-.59.58-.73,1.07l-.97-.28c.17-.65.5-1.16,1.01-1.52.5-.36,1.16-.54,1.96-.54.67,0,1.23.12,1.7.37.47.25.8.61.99,1.08.09.21.15.45.18.71.03.26.04.53.04.8v4.53h-.88v-1.83l.26.11c-.25.63-.63,1.1-1.15,1.43-.52.33-1.15.49-1.88.49ZM159.92,233.46c.46,0,.87-.08,1.21-.25.35-.17.63-.4.84-.69.21-.29.35-.62.41-.98.05-.23.08-.49.09-.77,0-.28,0-.49,0-.63l.38.2c-.34.04-.7.09-1.1.14-.39.04-.78.1-1.16.15-.38.06-.72.13-1.03.21-.21.06-.41.14-.6.25-.19.11-.35.25-.48.42-.12.18-.19.39-.19.66,0,.21.05.42.16.61.11.2.28.36.51.49.24.13.55.2.94.2Z"/>
  <path class="cls-2" d="M165.22,234.12v-7.29h.89v1.75l-.18-.23c.08-.22.19-.42.32-.6.13-.18.27-.33.43-.45.19-.17.41-.29.66-.38s.51-.14.76-.16c.26-.02.49,0,.7.06v.93c-.27-.07-.56-.08-.87-.05-.32.04-.61.16-.87.38-.24.19-.43.42-.55.68-.12.26-.2.54-.24.84-.04.29-.06.59-.06.87v3.64h-.99Z"/>
  <path class="cls-2" d="M173.11,234.32c-.73,0-1.35-.16-1.86-.49-.51-.33-.89-.78-1.16-1.36s-.4-1.24-.41-1.99c0-.77.15-1.44.42-2.02s.66-1.03,1.17-1.35c.51-.32,1.12-.48,1.85-.48s1.38.18,1.93.54c.55.36.92.85,1.12,1.48l-.97.31c-.17-.44-.44-.77-.81-1.02-.37-.24-.8-.36-1.27-.36-.54,0-.98.12-1.33.37s-.61.59-.78,1.02c-.17.44-.26.94-.26,1.51,0,.87.21,1.57.61,2.1.4.53.99.79,1.77.79.49,0,.92-.11,1.27-.34.35-.23.61-.56.79-1l1,.3c-.27.65-.67,1.14-1.19,1.48-.52.34-1.15.51-1.87.51Z"/>
  <path class="cls-2" d="M177.55,234.12v-9.72h.9v5.49h.1v4.23h-1ZM182.82,234.12v-3.72c0-.4-.04-.78-.11-1.12s-.2-.64-.37-.89c-.17-.25-.39-.45-.65-.59-.27-.14-.59-.21-.98-.21-.35,0-.66.06-.93.18-.27.12-.49.3-.67.52-.18.23-.32.5-.42.83-.09.32-.14.69-.14,1.11l-.7-.16c0-.75.13-1.38.39-1.88.26-.51.62-.89,1.08-1.15.46-.26.99-.39,1.58-.39.44,0,.82.07,1.14.2s.6.32.83.55c.23.23.41.49.55.79.14.29.24.61.3.94.06.33.09.66.09.99v4.01h-1Z"/>
  <path class="cls-5" d="M220.08,211.25c-3.31,0-6,2.69-6,6v24c0,3.31,2.69,6,6,6h168c3.31,0,6-2.69,6-6v-24c0-3.31-2.69-6-6-6h-168Z"/>
  <path class="cls-2" d="M253.71,234.32c-.97,0-1.78-.21-2.45-.64-.67-.43-1.17-1.02-1.51-1.79s-.51-1.64-.51-2.63.17-1.87.51-2.63c.34-.76.85-1.36,1.51-1.79.67-.43,1.48-.64,2.45-.64,1.13,0,2.05.29,2.77.87.72.58,1.21,1.35,1.47,2.33l-1.01.26c-.21-.77-.58-1.38-1.11-1.83-.54-.45-1.24-.67-2.11-.67-.76,0-1.39.17-1.9.52s-.88.83-1.14,1.45c-.25.62-.39,1.33-.4,2.14,0,.81.12,1.52.37,2.14.25.62.64,1.1,1.15,1.45s1.15.52,1.91.52c.87,0,1.58-.23,2.11-.68.54-.45.91-1.06,1.11-1.83l1.01.26c-.27.97-.76,1.75-1.47,2.33-.72.58-1.64.87-2.77.87Z"/>
  <path class="cls-2" d="M262.47,234.32c-.72,0-1.34-.16-1.86-.49-.51-.33-.91-.78-1.18-1.36-.27-.58-.41-1.25-.41-2s.14-1.44.42-2.01c.28-.58.68-1.03,1.19-1.35.52-.32,1.13-.48,1.84-.48s1.35.16,1.87.49.91.78,1.18,1.36c.27.58.41,1.24.41,2s-.14,1.44-.41,2.01c-.27.58-.67,1.03-1.19,1.35-.52.32-1.14.49-1.86.49ZM262.47,233.37c.81,0,1.41-.27,1.81-.81.4-.54.59-1.24.59-2.1s-.2-1.58-.6-2.11c-.4-.52-1-.78-1.81-.78-.54,0-.99.12-1.35.37-.35.25-.62.58-.79,1.02-.17.43-.26.93-.26,1.5,0,.88.2,1.58.61,2.11.4.53,1,.79,1.79.79Z"/>
  <path class="cls-2" d="M267.41,234.12v-7.29h.89v1.75l-.18-.23c.08-.22.19-.42.32-.6.13-.18.27-.33.43-.45.19-.17.41-.29.66-.38s.51-.14.76-.16c.26-.02.49,0,.7.06v.93c-.27-.07-.56-.08-.87-.05-.32.04-.61.16-.87.38-.24.19-.43.42-.55.68-.12.26-.2.54-.24.84-.04.29-.06.59-.06.87v3.64h-.99Z"/>
  <path class="cls-2" d="M275.37,234.32c-.71,0-1.33-.16-1.85-.47-.52-.32-.92-.76-1.21-1.33-.29-.57-.43-1.24-.43-2.01s.14-1.49.43-2.07c.28-.58.68-1.03,1.2-1.34.52-.32,1.12-.47,1.83-.47s1.33.17,1.84.5c.51.33.89.8,1.15,1.42.26.62.38,1.35.36,2.21h-1.01v-.35c-.02-.94-.22-1.66-.61-2.14-.39-.48-.96-.72-1.7-.72s-1.38.25-1.8.76c-.42.51-.62,1.23-.62,2.17s.21,1.63.62,2.14c.42.51,1.01.76,1.77.76.52,0,.98-.12,1.37-.36.39-.24.7-.59.92-1.04l.92.36c-.29.63-.71,1.13-1.27,1.48-.56.35-1.19.52-1.9.52ZM272.58,230.75v-.83h5.57v.83h-5.57Z"/>
  <path class="cls-2" d="M280.04,230.29v-.85h4.05v.85h-4.05Z"/>
  <path class="cls-2" d="M285.84,234.12v-9.72h3.75c.54,0,1.02.11,1.42.34.41.23.72.53.95.91.22.38.34.8.34,1.26,0,.52-.14.99-.42,1.39-.28.41-.65.69-1.12.85v-.33c.62.18,1.11.5,1.47.95.36.45.54.99.54,1.63,0,.56-.12,1.05-.36,1.45-.24.41-.57.72-1.01.94-.43.22-.93.33-1.51.33h-4.06ZM286.84,228.54h2.75c.31,0,.59-.07.85-.21.26-.14.46-.34.61-.58.15-.25.23-.53.23-.86,0-.46-.16-.83-.48-1.12s-.72-.43-1.21-.43h-2.75v3.21ZM286.84,233.17h2.82c.4,0,.75-.07,1.07-.21s.56-.34.75-.6c.18-.26.27-.58.27-.95s-.08-.68-.25-.97-.39-.52-.68-.69c-.29-.17-.61-.26-.98-.26h-3v3.69Z"/>
  <path class="cls-2" d="M297.2,234.32c-.71,0-1.33-.16-1.85-.47-.52-.32-.92-.76-1.21-1.33-.29-.57-.43-1.24-.43-2.01s.14-1.49.43-2.07c.28-.58.68-1.03,1.2-1.34.52-.32,1.12-.47,1.83-.47s1.33.17,1.84.5c.51.33.89.8,1.15,1.42.26.62.38,1.35.36,2.21h-1.01v-.35c-.02-.94-.22-1.66-.61-2.14-.39-.48-.96-.72-1.7-.72s-1.38.25-1.8.76c-.42.51-.62,1.23-.62,2.17s.21,1.63.62,2.14c.42.51,1.01.76,1.77.76.52,0,.98-.12,1.37-.36.39-.24.7-.59.92-1.04l.92.36c-.29.63-.71,1.13-1.27,1.48-.56.35-1.19.52-1.9.52ZM294.41,230.75v-.83h5.57v.83h-5.57Z"/>
  <path class="cls-2" d="M301.67,234.12v-7.29h.9v1.8h.1v5.49h-1ZM306.94,234.12v-3.72c0-.4-.04-.78-.11-1.12s-.2-.64-.37-.89c-.17-.25-.39-.45-.65-.59-.27-.14-.59-.21-.98-.21-.35,0-.66.06-.93.18-.27.12-.49.3-.67.52-.18.23-.32.5-.42.83-.09.32-.14.69-.14,1.11l-.7-.16c0-.75.13-1.38.39-1.88.26-.51.62-.89,1.08-1.15.46-.26.99-.39,1.58-.39.44,0,.82.07,1.14.2s.6.32.83.55c.23.23.41.49.55.79.14.29.24.61.3.94.06.33.09.66.09.99v4.01h-1Z"/>
  <path class="cls-2" d="M312.72,234.32c-.73,0-1.35-.16-1.86-.49-.51-.33-.89-.78-1.16-1.36s-.4-1.24-.41-1.99c0-.77.15-1.44.42-2.02s.66-1.03,1.17-1.35c.51-.32,1.12-.48,1.85-.48s1.38.18,1.93.54c.55.36.92.85,1.12,1.48l-.97.31c-.17-.44-.44-.77-.81-1.02-.37-.24-.8-.36-1.27-.36-.54,0-.98.12-1.33.37s-.61.59-.78,1.02c-.17.44-.26.94-.26,1.51,0,.87.21,1.57.61,2.1.4.53.99.79,1.77.79.49,0,.92-.11,1.27-.34.35-.23.61-.56.79-1l1,.3c-.27.65-.67,1.14-1.19,1.48-.52.34-1.15.51-1.87.51Z"/>
  <path class="cls-2" d="M317.16,234.12v-9.72h.9v5.49h.1v4.23h-1ZM322.43,234.12v-3.72c0-.4-.04-.78-.11-1.12s-.2-.64-.37-.89c-.17-.25-.39-.45-.65-.59-.27-.14-.59-.21-.98-.21-.35,0-.66.06-.93.18-.27.12-.49.3-.67.52-.18.23-.32.5-.42.83-.09.32-.14.69-.14,1.11l-.7-.16c0-.75.13-1.38.39-1.88.26-.51.62-.89,1.08-1.15.46-.26.99-.39,1.58-.39.44,0,.82.07,1.14.2s.6.32.83.55c.23.23.41.49.55.79.14.29.24.61.3.94.06.33.09.66.09.99v4.01h-1Z"/>
  <path class="cls-2" d="M325.05,230.29v-.85h4.05v.85h-4.05Z"/>
  <path class="cls-2" d="M330.86,234.12v-9.72h.99v4.38h5.37v-4.38h.99v9.72h-.99v-4.39h-5.37v4.39h-.99Z"/>
  <path class="cls-2" d="M342.18,234.32c-.55,0-1.01-.1-1.38-.3-.37-.2-.65-.46-.83-.79-.18-.33-.28-.69-.28-1.07s.08-.74.24-1.02c.16-.28.38-.51.65-.69.28-.18.6-.32.96-.41.37-.09.78-.17,1.23-.24.45-.07.89-.13,1.32-.18s.81-.1,1.13-.15l-.35.22c.01-.72-.13-1.25-.42-1.6s-.8-.52-1.53-.52c-.5,0-.92.11-1.27.34-.34.23-.59.58-.73,1.07l-.97-.28c.17-.65.5-1.16,1.01-1.52.5-.36,1.16-.54,1.96-.54.67,0,1.23.12,1.7.37.47.25.8.61.99,1.08.09.21.15.45.18.71.03.26.04.53.04.8v4.53h-.88v-1.83l.26.11c-.25.63-.63,1.1-1.15,1.43-.52.33-1.15.49-1.88.49ZM342.3,233.46c.46,0,.87-.08,1.21-.25.35-.17.63-.4.84-.69.21-.29.35-.62.41-.98.05-.23.08-.49.09-.77,0-.28,0-.49,0-.63l.38.2c-.34.04-.7.09-1.1.14-.39.04-.78.1-1.16.15-.38.06-.72.13-1.03.21-.21.06-.41.14-.6.25-.19.11-.35.25-.48.42-.12.18-.19.39-.19.66,0,.21.05.42.16.61.11.2.28.36.51.49.24.13.55.2.94.2Z"/>
  <path class="cls-2" d="M347.6,234.12v-7.29h.89v1.75l-.18-.23c.08-.22.19-.42.32-.6.13-.18.27-.33.43-.45.19-.17.41-.29.66-.38s.51-.14.76-.16c.26-.02.49,0,.7.06v.93c-.27-.07-.56-.08-.87-.05-.32.04-.61.16-.87.38-.24.19-.43.42-.55.68-.12.26-.2.54-.24.84-.04.29-.06.59-.06.87v3.64h-.99Z"/>
  <path class="cls-2" d="M355.11,234.32c-.68,0-1.26-.17-1.74-.51-.48-.34-.85-.8-1.11-1.38s-.38-1.24-.38-1.96.13-1.38.38-1.96c.25-.58.62-1.04,1.1-1.38s1.05-.51,1.71-.51,1.26.17,1.73.5c.47.33.82.79,1.06,1.37s.36,1.24.36,1.97-.12,1.38-.36,1.96c-.24.58-.59,1.04-1.05,1.38-.46.34-1.03.51-1.7.51ZM355.21,233.39c.52,0,.94-.13,1.28-.38.34-.25.59-.6.76-1.04.17-.44.25-.95.25-1.51s-.08-1.08-.25-1.52-.42-.78-.75-1.03c-.33-.25-.76-.37-1.27-.37s-.95.13-1.3.38c-.34.26-.6.6-.76,1.05s-.25.94-.25,1.49.08,1.05.25,1.5c.17.44.42.79.76,1.05.34.26.76.38,1.27.38ZM357.5,234.12v-5.49h-.11v-4.23h1v9.72h-.89Z"/>
  <path class="cls-5" d="M604.08,211.25c-3.31,0-6,2.69-6,6v24c0,3.31,2.69,6,6,6h168c3.31,0,6-2.69,6-6v-24c0-3.31-2.69-6-6-6h-168Z"/>
  <path class="cls-2" d="M637.36,234.11h6.07v-.95h-5.08v-3.5h4.27v-.95h-4.27v-3.36h5.08v-.95h-6.07v9.71ZM649.75,230.04c.94-.84,1.38-1.52,1.38-2.74,0-1.73-1.34-3.1-3.11-3.1s-3.17,1.32-3.17,3.09h1.01c-.01-1.14.9-2.14,2.14-2.14s2.12.94,2.12,2.14c0,.67-.19,1.27-.94,1.94l-4.39,3.97v.9s6.33,0,6.33,0v-.95h-4.83l3.45-3.12ZM652.75,234.11h6.07v-.95h-5.08v-3.5h4.27v-.95h-4.27v-3.36h5.08v-.95h-6.07v9.71ZM660.31,229.68h4.05v-.85h-4.05v.85ZM671.43,228.96c.7-.4,1.14-1.17,1.14-2.06,0-1.38-1.08-2.5-2.7-2.5h-3.75v9.71h4.06c1.71,0,2.87-1.04,2.87-2.72,0-1.13-.6-1.99-1.61-2.43h0ZM667.11,225.34h2.74c.98,0,1.69.63,1.69,1.55,0,.97-.76,1.65-1.69,1.65h-2.74v-3.2ZM669.93,233.16h-2.82v-3.68h3c1.09,0,1.9.85,1.9,1.92s-.9,1.76-2.08,1.76h0ZM675.04,230.74h5.74c.07-2.57-1.19-4.12-3.35-4.12s-3.45,1.49-3.45,3.88,1.36,3.81,3.49,3.81c1.41,0,2.59-.72,3.17-2l-.92-.36c-.45.91-1.25,1.4-2.29,1.4-1.45,0-2.31-.95-2.39-2.62h0ZM677.46,227.53c1.36,0,2.13.81,2.29,2.38h-4.68c.16-1.53.99-2.38,2.39-2.38h0Z"/>
  <path class="cls-2" d="M682.08,234.12v-7.29h.9v1.8h.1v5.49h-1ZM687.35,234.12v-3.72c0-.4-.04-.78-.11-1.12-.08-.34-.2-.64-.37-.89-.17-.25-.39-.45-.66-.59-.27-.14-.59-.21-.97-.21-.35,0-.66.06-.93.18-.27.12-.49.3-.67.52-.18.23-.32.5-.42.83s-.14.69-.14,1.11l-.7-.16c0-.75.13-1.38.39-1.88.26-.51.62-.89,1.08-1.15.46-.26.99-.39,1.58-.39.44,0,.82.07,1.14.2s.6.32.83.55.41.49.55.79.24.61.3.94c.06.33.09.66.09.99v4.01h-1Z"/>
  <path class="cls-2" d="M693.12,234.32c-.73,0-1.35-.16-1.86-.49-.51-.33-.89-.78-1.16-1.36-.26-.58-.4-1.24-.41-1.99,0-.77.15-1.44.42-2.02.27-.58.66-1.03,1.17-1.35.51-.32,1.12-.48,1.85-.48s1.38.18,1.93.54c.55.36.92.85,1.12,1.48l-.97.31c-.17-.44-.44-.77-.81-1.02-.37-.24-.79-.36-1.27-.36-.54,0-.98.12-1.33.37-.35.25-.61.59-.78,1.02s-.26.94-.26,1.51c0,.87.21,1.57.61,2.1.4.53.99.79,1.77.79.5,0,.92-.11,1.27-.34.35-.23.61-.56.79-1l1,.3c-.27.65-.67,1.14-1.19,1.48-.52.34-1.15.51-1.87.51Z"/>
  <path class="cls-2" d="M697.57,234.12v-9.72h.9v5.49h.1v4.23h-1ZM702.84,234.12v-3.72c0-.4-.04-.78-.11-1.12-.08-.34-.2-.64-.37-.89-.17-.25-.39-.45-.66-.59-.27-.14-.59-.21-.97-.21-.35,0-.66.06-.93.18-.27.12-.49.3-.67.52-.18.23-.32.5-.42.83s-.14.69-.14,1.11l-.7-.16c0-.75.13-1.38.39-1.88.26-.51.62-.89,1.08-1.15.46-.26.99-.39,1.58-.39.44,0,.82.07,1.14.2s.6.32.83.55.41.49.55.79.24.61.3.94c.06.33.09.66.09.99v4.01h-1Z"/>
  <path class="cls-2" d="M705.46,230.29v-.85h4.05v.85h-4.05Z"/>
  <path class="cls-2" d="M711.26,234.12v-9.72h.99v4.38h5.37v-4.38h.99v9.72h-.99v-4.39h-5.37v4.39h-.99Z"/>
  <path class="cls-2" d="M722.59,234.32c-.55,0-1.01-.1-1.38-.3-.37-.2-.65-.46-.83-.79-.18-.33-.28-.69-.28-1.07s.08-.74.24-1.02c.16-.28.38-.51.66-.69.28-.18.6-.32.96-.41.37-.09.78-.17,1.22-.24.45-.07.89-.13,1.32-.18s.81-.1,1.13-.15l-.35.22c.01-.72-.13-1.25-.42-1.6-.29-.35-.8-.52-1.53-.52-.5,0-.92.11-1.27.34-.34.23-.59.58-.73,1.07l-.97-.28c.17-.65.5-1.16,1.01-1.52.5-.36,1.16-.54,1.96-.54.67,0,1.23.12,1.7.37.47.25.79.61.99,1.08.09.21.15.45.17.71.03.26.04.53.04.8v4.53h-.88v-1.83l.26.11c-.25.63-.63,1.1-1.15,1.43-.52.33-1.15.49-1.88.49ZM722.7,233.46c.46,0,.87-.08,1.21-.25.35-.17.63-.4.84-.69.21-.29.35-.62.41-.98.05-.23.08-.49.09-.77,0-.28,0-.49,0-.63l.38.2c-.34.04-.7.09-1.1.14-.39.04-.78.1-1.16.15-.38.06-.72.13-1.03.21-.21.06-.41.14-.6.25s-.35.25-.48.42-.19.39-.19.66c0,.21.05.42.16.61.11.2.28.36.51.49s.55.2.94.2Z"/>
  <path class="cls-2" d="M728,234.12v-7.29h.89v1.75l-.18-.23c.08-.22.19-.42.32-.6.13-.18.27-.33.43-.45.19-.17.41-.29.66-.38s.51-.14.76-.16.49,0,.7.06v.93c-.27-.07-.56-.08-.87-.05-.31.04-.61.16-.87.38-.24.19-.43.42-.55.68-.12.26-.2.54-.24.84-.04.29-.06.59-.06.87v3.64h-.99Z"/>
  <path class="cls-2" d="M735.5,234.32c-.68,0-1.26-.17-1.74-.51-.48-.34-.85-.8-1.11-1.38s-.38-1.24-.38-1.96.13-1.38.38-1.96c.25-.58.62-1.04,1.1-1.38.48-.34,1.05-.51,1.71-.51s1.26.17,1.73.5.82.79,1.06,1.37c.24.58.36,1.24.36,1.97s-.12,1.38-.36,1.96c-.24.58-.59,1.04-1.05,1.38-.46.34-1.03.51-1.7.51ZM735.61,233.39c.52,0,.95-.13,1.28-.38.34-.25.59-.6.76-1.04.17-.44.25-.95.25-1.51s-.08-1.08-.25-1.52c-.17-.44-.42-.78-.75-1.03-.33-.25-.76-.37-1.27-.37s-.95.13-1.3.38c-.34.26-.59.6-.76,1.05-.17.44-.25.94-.25,1.49s.08,1.05.25,1.5c.17.44.42.79.76,1.05.34.26.76.38,1.27.38ZM737.89,234.12v-5.49h-.11v-4.23h1v9.72h-.89Z"/>
  <path class="cls-5" d="M28.08,307.25c-3.31,0-6,2.69-6,6v24c0,3.31,2.69,6,6,6h168c3.31,0,6-2.69,6-6v-24c0-3.31-2.69-6-6-6H28.08Z"/>
  <path class="cls-2" d="M65.61,330.11v-9.72h.99v8.77h4.62v.95h-5.61Z"/>
  <path class="cls-2" d="M72.5,321.44v-1.11h.99v1.11h-.99ZM72.5,330.11v-7.29h.99v7.29h-.99Z"/>
  <path class="cls-2" d="M74.71,323.67v-.85h4.78v.85h-4.78ZM79.49,330.11c-.41.08-.81.12-1.21.1-.4-.02-.75-.1-1.07-.26-.31-.15-.55-.39-.71-.72-.13-.27-.2-.54-.21-.82-.01-.28-.02-.59-.02-.95v-6.68h.99v6.64c0,.31,0,.56.01.77,0,.21.05.39.14.54.16.3.42.48.77.54s.79.04,1.31-.04v.87Z"/>
  <path class="cls-2" d="M84.86,330.31c-.97,0-1.78-.21-2.45-.64-.67-.43-1.17-1.02-1.51-1.79s-.51-1.64-.51-2.63.17-1.87.51-2.63c.34-.76.85-1.36,1.51-1.79.67-.43,1.48-.64,2.45-.64s1.79.21,2.45.64c.66.43,1.17,1.03,1.51,1.79.34.76.52,1.64.52,2.63s-.17,1.87-.52,2.63-.85,1.36-1.51,1.79c-.66.43-1.48.64-2.45.64ZM84.86,329.36c.76,0,1.4-.17,1.9-.52.51-.35.89-.83,1.14-1.45.25-.62.38-1.33.38-2.14s-.13-1.52-.38-2.14c-.25-.62-.64-1.1-1.14-1.44s-1.14-.52-1.9-.53c-.76,0-1.39.17-1.9.52s-.88.83-1.14,1.45c-.25.62-.38,1.33-.39,2.14,0,.81.12,1.52.37,2.14s.64,1.1,1.14,1.44c.51.35,1.14.53,1.9.53ZM88.56,330.3l-2.59-2.58.67-.67,2.58,2.58-.66.67Z"/>
  <path class="cls-2" d="M89.75,330.11l3.35-9.72h1.32l3.35,9.72h-1.03l-3.18-9.17h.39l-3.16,9.17h-1.03ZM91.24,327.75v-.93h5.02v.93h-5.02Z"/>
  <path class="cls-2" d="M98.71,330.1v-.9s4.4-3.97,4.4-3.97c.38-.34.63-.67.75-.98.12-.31.19-.63.19-.97,0-.4-.09-.76-.28-1.09s-.44-.58-.76-.77c-.32-.19-.68-.29-1.07-.29s-.78.1-1.11.3c-.32.2-.58.46-.77.78-.19.32-.28.68-.27,1.06h-1.01c0-.59.14-1.12.42-1.59.28-.47.66-.84,1.13-1.1s1.02-.4,1.62-.4,1.12.14,1.59.42c.47.28.84.65,1.11,1.12.27.47.41.99.41,1.57,0,.41-.05.76-.15,1.07-.1.31-.25.59-.45.86-.21.26-.46.53-.78.81l-3.9,3.52-.16-.41h5.43v.95h-6.35Z"/>
  <path class="cls-2" d="M106.54,326.28v-.85h4.05v.85h-4.05Z"/>
  <path class="cls-2" d="M112.34,330.11v-9.72h5.58v.99h-4.59v3.38h3.78v.99h-3.78v4.37h-.99Z"/>
  <path class="cls-2" d="M121.93,330.29c-.44,0-.82-.07-1.14-.2-.33-.13-.6-.32-.83-.55s-.41-.49-.55-.79c-.14-.29-.24-.61-.3-.94-.06-.33-.09-.66-.09-.99v-4.01h1v3.72c0,.4.04.77.11,1.11.08.34.2.64.37.89.17.25.39.45.65.59s.59.21.98.21c.35,0,.66-.06.93-.18.27-.12.49-.3.67-.52.18-.23.32-.5.42-.83.09-.33.14-.69.14-1.1l.7.16c0,.75-.13,1.38-.39,1.88-.26.51-.62.89-1.08,1.15-.46.26-.99.39-1.58.39ZM124.38,330.11v-1.8h-.1v-5.49h.99v7.29h-.89Z"/>
  <path class="cls-2" d="M127.29,330.11v-9.92h.99v9.92h-.99Z"/>
  <path class="cls-2" d="M130.45,330.11v-9.92h.99v9.92h-.99Z"/>
  <path class="cls-2" d="M136.05,330.11v-8.77h-3.4v-.95h7.78v.95h-3.4v8.77h-.99Z"/>
  <path class="cls-2" d="M143.52,330.31c-.71,0-1.33-.16-1.85-.47-.52-.32-.92-.76-1.21-1.33-.29-.57-.43-1.24-.43-2.01s.14-1.49.43-2.07c.28-.58.68-1.03,1.2-1.34.52-.32,1.12-.47,1.83-.47s1.33.17,1.84.5c.51.33.89.8,1.15,1.42.26.62.38,1.35.36,2.21h-1.01v-.35c-.02-.94-.22-1.66-.61-2.14-.39-.48-.96-.72-1.7-.72s-1.38.25-1.8.76c-.42.51-.62,1.23-.62,2.17s.21,1.63.62,2.14c.42.51,1.01.76,1.77.76.52,0,.98-.12,1.37-.36.39-.24.7-.59.92-1.04l.92.36c-.29.63-.71,1.13-1.27,1.48-.56.35-1.19.52-1.9.52ZM140.73,326.74v-.83h5.57v.83h-5.57Z"/>
  <path class="cls-2" d="M147.24,330.11l2.85-3.69-2.79-3.6h1.19l2.18,2.84,2.16-2.84h1.19l-2.79,3.6,2.86,3.69h-1.19l-2.22-2.92-2.23,2.92h-1.19Z"/>
  <path class="cls-2" d="M154.35,323.67v-.85h4.78v.85h-4.78ZM159.13,330.11c-.41.08-.81.12-1.21.1-.4-.02-.75-.1-1.07-.26-.31-.15-.55-.39-.71-.72-.13-.27-.2-.54-.21-.82-.01-.28-.02-.59-.02-.95v-6.68h.99v6.64c0,.31,0,.56.01.77,0,.21.05.39.14.54.16.3.42.48.77.54s.79.04,1.31-.04v.87Z"/>
  <path class="cls-5" d="M28.08,355.25c-3.31,0-6,2.69-6,6v24c0,3.31,2.69,6,6,6h168c3.31,0,6-2.69,6-6v-24c0-3.31-2.69-6-6-6H28.08Z"/>
  <path class="cls-2" d="M52.72,378.11v-9.72h3.75c.09,0,.2,0,.32,0s.24.02.36.04c.51.08.94.25,1.29.53.35.28.62.62.8,1.04.18.42.27.88.27,1.39s-.09.97-.28,1.38c-.18.42-.45.77-.81,1.04-.35.28-.78.45-1.29.53-.12.02-.24.03-.36.04-.12,0-.23.01-.32.01h-2.76v3.69h-.99ZM53.72,373.47h2.73c.08,0,.18,0,.28-.01.11,0,.21-.03.32-.05.33-.07.61-.21.82-.41.21-.2.37-.44.48-.72.11-.28.16-.57.16-.87s-.05-.59-.16-.87c-.11-.28-.27-.52-.48-.73-.21-.2-.49-.34-.82-.41-.1-.02-.21-.04-.32-.04s-.2-.01-.28-.01h-2.73v4.13Z"/>
  <path class="cls-2" d="M62.64,378.31c-.55,0-1.01-.1-1.38-.3-.37-.2-.65-.46-.83-.79-.18-.33-.28-.69-.28-1.07s.08-.74.24-1.02c.16-.28.38-.51.65-.69.28-.18.6-.32.96-.41.37-.09.78-.17,1.23-.24.45-.07.89-.13,1.32-.18s.81-.1,1.13-.15l-.35.22c.01-.72-.13-1.25-.42-1.6s-.8-.52-1.53-.52c-.5,0-.92.11-1.27.34-.34.23-.59.58-.73,1.07l-.97-.28c.17-.65.5-1.16,1.01-1.52.5-.36,1.16-.54,1.96-.54.67,0,1.23.12,1.7.37.47.25.8.61.99,1.08.09.21.15.45.18.71.03.26.04.53.04.8v4.53h-.88v-1.83l.26.11c-.25.63-.63,1.1-1.15,1.43-.52.33-1.15.49-1.88.49ZM62.76,377.46c.46,0,.87-.08,1.21-.25.35-.17.63-.4.84-.69.21-.29.35-.62.41-.98.05-.23.08-.49.09-.77,0-.28,0-.49,0-.63l.38.2c-.34.04-.7.09-1.1.14-.39.04-.78.1-1.16.15-.38.06-.72.13-1.03.21-.21.06-.41.14-.6.25-.19.11-.35.25-.48.42-.12.18-.19.39-.19.66,0,.21.05.42.16.61.11.2.28.36.51.49.24.13.55.2.94.2Z"/>
  <path class="cls-2" d="M68.05,381.35v-10.53h.89v5.49h.11v5.04h-1ZM71.33,378.31c-.67,0-1.24-.17-1.7-.51-.46-.34-.81-.8-1.05-1.38-.24-.58-.36-1.24-.36-1.96s.12-1.4.36-1.97.59-1.03,1.06-1.37c.47-.33,1.04-.5,1.73-.5s1.24.17,1.71.51.84.8,1.1,1.38c.25.58.38,1.23.38,1.96s-.13,1.38-.38,1.96c-.26.58-.63,1.04-1.11,1.38-.48.34-1.06.51-1.74.51ZM71.23,377.39c.51,0,.93-.13,1.27-.38.34-.26.59-.61.76-1.05.17-.44.25-.94.25-1.5s-.08-1.04-.25-1.49-.42-.79-.76-1.05c-.34-.26-.77-.38-1.29-.38s-.93.12-1.27.37c-.33.25-.59.59-.75,1.03s-.25.94-.25,1.52.08,1.07.25,1.51c.17.44.42.79.76,1.04s.77.38,1.28.38Z"/>
  <path class="cls-2" d="M79.13,378.31c-.71,0-1.33-.16-1.85-.47-.52-.32-.92-.76-1.21-1.33-.29-.57-.43-1.24-.43-2.01s.14-1.49.43-2.07c.28-.58.68-1.03,1.2-1.34.52-.32,1.12-.47,1.83-.47s1.33.17,1.84.5c.51.33.89.8,1.15,1.42.26.62.38,1.35.36,2.21h-1.01v-.35c-.02-.94-.22-1.66-.61-2.14-.39-.48-.96-.72-1.7-.72s-1.38.25-1.8.76c-.42.51-.62,1.23-.62,2.17s.21,1.63.62,2.14c.42.51,1.01.76,1.77.76.52,0,.98-.12,1.37-.36.39-.24.7-.59.92-1.04l.92.36c-.29.63-.71,1.13-1.27,1.48-.56.35-1.19.52-1.9.52ZM76.35,374.74v-.83h5.57v.83h-5.57Z"/>
  <path class="cls-2" d="M83.94,378.11v-7.29h.89v1.75l-.18-.23c.08-.22.19-.42.32-.6.13-.18.27-.33.43-.45.19-.17.41-.29.66-.38s.51-.14.76-.16c.26-.02.49,0,.7.06v.93c-.27-.07-.56-.08-.87-.05-.32.04-.61.16-.87.38-.24.19-.43.42-.55.68-.12.26-.2.54-.24.84-.04.29-.06.59-.06.87v3.64h-.99Z"/>
  <path class="cls-2" d="M88.81,378.11v-9.72h5.58v.99h-4.59v3.38h3.78v.99h-3.78v4.37h-.99Z"/>
  <path class="cls-2" d="M95.74,369.44v-1.11h.99v1.11h-.99ZM95.74,378.11v-7.29h.99v7.29h-.99Z"/>
  <path class="cls-2" d="M98.75,378.11v-7.29h.9v1.8h.1v5.49h-1ZM104.02,378.11v-3.72c0-.4-.04-.78-.11-1.12s-.2-.64-.37-.89c-.17-.25-.39-.45-.65-.59-.27-.14-.59-.21-.98-.21-.35,0-.66.06-.93.18-.27.12-.49.3-.67.52-.18.23-.32.5-.42.83-.09.32-.14.69-.14,1.11l-.7-.16c0-.75.13-1.38.39-1.88.26-.51.62-.89,1.08-1.15.46-.26.99-.39,1.58-.39.44,0,.82.07,1.14.2s.6.32.83.55c.23.23.41.49.55.79.14.29.24.61.3.94.06.33.09.66.09.99v4.01h-1Z"/>
  <path class="cls-2" d="M109.6,378.31c-.68,0-1.26-.17-1.74-.51-.48-.34-.85-.8-1.11-1.38s-.38-1.24-.38-1.96.13-1.38.38-1.96c.25-.58.62-1.04,1.1-1.38s1.05-.51,1.71-.51,1.26.17,1.73.5c.47.33.82.79,1.06,1.37s.36,1.24.36,1.97-.12,1.38-.36,1.96c-.24.58-.59,1.04-1.05,1.38-.46.34-1.03.51-1.7.51ZM109.7,377.39c.52,0,.94-.13,1.28-.38.34-.25.59-.6.76-1.04.17-.44.25-.95.25-1.51s-.08-1.08-.25-1.52-.42-.78-.75-1.03c-.33-.25-.76-.37-1.27-.37s-.95.13-1.3.38c-.34.26-.6.6-.76,1.05s-.25.94-.25,1.49.08,1.05.25,1.5c.17.44.42.79.76,1.05.34.26.76.38,1.27.38ZM111.99,378.11v-5.49h-.11v-4.23h1v9.72h-.89Z"/>
  <path class="cls-2" d="M114.91,369.44v-1.11h.99v1.11h-.99ZM114.91,378.11v-7.29h.99v7.29h-.99Z"/>
  <path class="cls-2" d="M117.92,378.11v-7.29h.9v1.8h.1v5.49h-1ZM123.19,378.11v-3.72c0-.4-.04-.78-.11-1.12s-.2-.64-.37-.89c-.17-.25-.39-.45-.65-.59-.27-.14-.59-.21-.98-.21-.35,0-.66.06-.93.18-.27.12-.49.3-.67.52-.18.23-.32.5-.42.83-.09.32-.14.69-.14,1.11l-.7-.16c0-.75.13-1.38.39-1.88.26-.51.62-.89,1.08-1.15.46-.26.99-.39,1.58-.39.44,0,.82.07,1.14.2s.6.32.83.55c.23.23.41.49.55.79.14.29.24.61.3.94.06.33.09.66.09.99v4.01h-1Z"/>
  <path class="cls-2" d="M128.77,378.31c-.68,0-1.26-.17-1.74-.51-.48-.34-.85-.8-1.11-1.38s-.38-1.24-.38-1.96.13-1.38.38-1.96c.25-.58.62-1.04,1.1-1.38s1.05-.51,1.71-.51,1.26.17,1.73.5c.47.33.82.79,1.06,1.37s.36,1.24.36,1.97-.12,1.38-.36,1.96c-.24.58-.59,1.04-1.05,1.38-.46.34-1.03.51-1.7.51ZM128.84,381.55c-.37,0-.74-.05-1.1-.17-.36-.11-.7-.28-1-.52-.31-.24-.56-.54-.77-.92l.9-.5c.2.4.49.7.85.87s.74.27,1.12.27c.53,0,.95-.1,1.28-.29.33-.2.56-.49.71-.87.15-.38.22-.86.22-1.43v-1.94h.11v-5.23h.88v7.19c0,.21,0,.41-.02.6s-.03.38-.06.56c-.09.54-.26.99-.53,1.34-.27.35-.62.61-1.05.78-.43.17-.95.26-1.54.26ZM128.87,377.39c.52,0,.94-.13,1.28-.38.34-.25.59-.6.76-1.04.17-.44.25-.95.25-1.51s-.08-1.08-.25-1.52-.42-.78-.75-1.03c-.33-.25-.76-.37-1.27-.37s-.95.13-1.3.38c-.34.26-.6.6-.76,1.05s-.25.94-.25,1.49.08,1.05.25,1.5c.17.44.42.79.76,1.05.34.26.76.38,1.27.38Z"/>
  <path class="cls-2" d="M133.94,378.11v-9.72h3.75c.54,0,1.02.11,1.42.34.41.23.72.53.95.91.22.38.34.8.34,1.26,0,.52-.14.99-.42,1.39-.28.41-.65.69-1.12.85v-.33c.62.18,1.11.5,1.47.95.36.45.54.99.54,1.63,0,.56-.12,1.05-.36,1.45-.24.41-.57.72-1.01.94-.43.22-.93.33-1.51.33h-4.06ZM134.94,372.53h2.75c.31,0,.59-.07.85-.21.26-.14.46-.34.61-.58.15-.25.23-.53.23-.86,0-.46-.16-.83-.48-1.12s-.72-.43-1.21-.43h-2.75v3.21ZM134.94,377.16h2.82c.4,0,.75-.07,1.07-.21s.56-.34.75-.6c.18-.26.27-.58.27-.95s-.08-.68-.25-.97-.39-.52-.68-.69c-.29-.17-.61-.26-.98-.26h-3v3.69Z"/>
  <path class="cls-2" d="M145.3,378.31c-.71,0-1.33-.16-1.85-.47-.52-.32-.92-.76-1.21-1.33-.29-.57-.43-1.24-.43-2.01s.14-1.49.43-2.07c.28-.58.68-1.03,1.2-1.34.52-.32,1.12-.47,1.83-.47s1.33.17,1.84.5c.51.33.89.8,1.15,1.42.26.62.38,1.35.36,2.21h-1.01v-.35c-.02-.94-.22-1.66-.61-2.14-.39-.48-.96-.72-1.7-.72s-1.38.25-1.8.76c-.42.51-.62,1.23-.62,2.17s.21,1.63.62,2.14c.42.51,1.01.76,1.77.76.52,0,.98-.12,1.37-.36.39-.24.7-.59.92-1.04l.92.36c-.29.63-.71,1.13-1.27,1.48-.56.35-1.19.52-1.9.52ZM142.51,374.74v-.83h5.57v.83h-5.57Z"/>
  <path class="cls-2" d="M149.85,378.11v-7.29h.9v1.8h.1v5.49h-1ZM155.12,378.11v-3.72c0-.4-.04-.78-.11-1.12s-.2-.64-.37-.89c-.17-.25-.39-.45-.65-.59-.27-.14-.59-.21-.98-.21-.35,0-.66.06-.93.18-.27.12-.49.3-.67.52-.18.23-.32.5-.42.83-.09.32-.14.69-.14,1.11l-.7-.16c0-.75.13-1.38.39-1.88.26-.51.62-.89,1.08-1.15.46-.26.99-.39,1.58-.39.44,0,.82.07,1.14.2s.6.32.83.55c.23.23.41.49.55.79.14.29.24.61.3.94.06.33.09.66.09.99v4.01h-1Z"/>
  <path class="cls-2" d="M160.84,378.31c-.73,0-1.35-.16-1.86-.49-.51-.33-.89-.78-1.16-1.36s-.4-1.24-.41-1.99c0-.77.15-1.44.42-2.02s.66-1.03,1.17-1.35c.51-.32,1.12-.48,1.85-.48s1.38.18,1.93.54c.55.36.92.85,1.12,1.48l-.97.31c-.17-.44-.44-.77-.81-1.02-.37-.24-.8-.36-1.27-.36-.54,0-.98.12-1.33.37s-.61.59-.78,1.02c-.17.44-.26.94-.26,1.51,0,.87.21,1.57.61,2.1.4.53.99.79,1.77.79.49,0,.92-.11,1.27-.34.35-.23.61-.56.79-1l1,.3c-.27.65-.67,1.14-1.19,1.48-.52.34-1.15.51-1.87.51Z"/>
  <path class="cls-2" d="M165.29,378.11v-9.72h.9v5.49h.1v4.23h-1ZM170.56,378.11v-3.72c0-.4-.04-.78-.11-1.12s-.2-.64-.37-.89c-.17-.25-.39-.45-.65-.59-.27-.14-.59-.21-.98-.21-.35,0-.66.06-.93.18-.27.12-.49.3-.67.52-.18.23-.32.5-.42.83-.09.32-.14.69-.14,1.11l-.7-.16c0-.75.13-1.38.39-1.88.26-.51.62-.89,1.08-1.15.46-.26.99-.39,1.58-.39.44,0,.82.07,1.14.2s.6.32.83.55c.23.23.41.49.55.79.14.29.24.61.3.94.06.33.09.66.09.99v4.01h-1Z"/>
  <path class="cls-3" d="M341.06,48.11l3.16-9.72h2.03l3.16,9.72h-1.46l-2.91-8.87h.36l-2.88,8.87h-1.46ZM342.7,45.92v-1.32h5.08v1.32h-5.08Z"/>
  <path class="cls-3" d="M353.41,48.31c-.89,0-1.61-.2-2.17-.59s-.9-.94-1.03-1.65l1.44-.22c.09.38.3.68.62.89s.73.33,1.22.33c.44,0,.79-.09,1.04-.27.25-.18.37-.43.37-.74,0-.18-.04-.33-.13-.45s-.27-.22-.55-.33c-.28-.1-.7-.23-1.28-.38-.63-.16-1.12-.34-1.49-.52-.37-.19-.63-.41-.78-.65-.16-.25-.23-.55-.23-.91,0-.44.12-.83.35-1.15.23-.33.56-.58.99-.76.43-.18.92-.27,1.5-.27s1.06.09,1.49.26c.44.18.79.42,1.06.75s.43.7.49,1.13l-1.44.26c-.05-.35-.21-.63-.49-.83-.28-.2-.64-.31-1.09-.33-.43-.02-.77.05-1.04.21-.27.16-.4.38-.4.66,0,.16.05.3.15.41.1.11.3.22.59.32.29.1.72.23,1.3.37.61.16,1.1.33,1.46.52.36.19.62.42.77.68s.23.58.23.96c0,.72-.26,1.28-.79,1.69s-1.25.61-2.17.61Z"/>
  <path class="cls-3" d="M357.05,41.95v-1.13h4.98v1.13h-4.98ZM362.03,48.11c-.46.09-.91.13-1.35.11-.44-.01-.83-.1-1.18-.26-.35-.16-.61-.41-.78-.74-.16-.3-.24-.61-.25-.92-.01-.31-.02-.67-.02-1.06v-6.45h1.42v6.38c0,.29,0,.55.01.76,0,.22.05.4.14.55.16.28.42.44.77.48.35.04.77.02,1.25-.04v1.19Z"/>
  <path class="cls-3" d="M365.62,48.31c-.54,0-.99-.1-1.36-.3-.36-.2-.64-.47-.83-.8-.19-.33-.28-.69-.28-1.09,0-.37.06-.69.2-.97.13-.28.32-.52.58-.71.26-.2.57-.35.94-.48.32-.09.69-.18,1.1-.25.41-.07.84-.14,1.29-.2.45-.06.9-.13,1.35-.19l-.51.28c0-.57-.11-1-.36-1.27-.25-.28-.68-.42-1.29-.42-.38,0-.73.09-1.05.27-.32.18-.54.47-.67.88l-1.32-.4c.18-.63.52-1.12,1.03-1.49s1.18-.55,2.02-.55c.65,0,1.22.11,1.7.33.48.22.84.57,1.06,1.06.12.24.19.49.22.76.03.27.04.55.04.86v4.49h-1.25v-1.67l.24.22c-.3.56-.69.97-1.15,1.25-.47.27-1.04.41-1.72.41ZM365.87,47.16c.4,0,.74-.07,1.03-.21.29-.14.52-.32.7-.54.18-.22.29-.45.34-.69.08-.22.12-.46.13-.73.01-.27.02-.49.02-.65l.46.17c-.45.07-.85.13-1.21.18-.36.05-.69.11-.99.16-.29.05-.56.11-.79.19-.19.07-.37.15-.52.24-.15.09-.27.21-.36.34-.09.13-.13.3-.13.49s.05.36.14.52c.09.16.24.29.43.38.19.09.44.14.74.14Z"/>
  <path class="cls-3" d="M371.25,48.11v-9.72h3.82c.62,0,1.13.13,1.55.38s.73.58.95.98c.21.4.32.82.32,1.26,0,.54-.13.99-.39,1.38-.26.38-.62.64-1.06.78v-.33c.61.15,1.08.45,1.42.89.33.44.5.96.5,1.55s-.11,1.07-.34,1.49c-.23.42-.56.75-.99.99s-.96.35-1.58.35h-4.19ZM372.68,42.36h2.37c.26,0,.5-.05.71-.16.21-.11.38-.26.5-.46.12-.2.19-.44.19-.73,0-.38-.13-.69-.38-.93-.25-.24-.59-.36-1.01-.36h-2.37v2.64ZM372.68,46.77h2.54c.32,0,.61-.06.86-.18.25-.12.45-.3.6-.52.15-.23.22-.5.22-.81,0-.29-.06-.56-.19-.79s-.31-.42-.55-.56-.52-.21-.85-.21h-2.63v3.08Z"/>
  <path class="cls-3" d="M382.92,48.31c-.72,0-1.36-.16-1.91-.48s-.97-.76-1.28-1.33-.46-1.23-.46-1.98c0-.8.15-1.49.45-2.07.3-.58.72-1.04,1.25-1.36.54-.32,1.16-.48,1.87-.48s1.37.17,1.9.52.91.83,1.17,1.47c.26.63.36,1.39.31,2.26h-1.41v-.51c0-.85-.17-1.47-.48-1.88-.31-.4-.79-.61-1.43-.61-.71,0-1.24.22-1.59.67-.36.45-.53,1.09-.53,1.93s.18,1.42.53,1.86c.36.44.87.66,1.54.66.44,0,.82-.1,1.14-.3s.57-.49.75-.86l1.38.44c-.28.65-.71,1.16-1.29,1.52-.58.36-1.22.54-1.92.54ZM380.32,44.86v-1.1h5.2v1.1h-5.2Z"/>
  <path class="cls-3" d="M387.53,48.11v-7.29h1.26v2.11h.17v5.18h-1.43ZM392.65,48.11v-3.58c0-.28-.02-.57-.07-.87s-.14-.58-.27-.83-.32-.46-.56-.62c-.24-.16-.55-.24-.94-.24-.25,0-.49.04-.72.12-.23.08-.42.22-.59.4s-.3.43-.4.73c-.1.3-.15.67-.15,1.1l-.88-.33c0-.66.12-1.25.37-1.75s.6-.9,1.07-1.18c.46-.28,1.02-.43,1.68-.43.5,0,.93.08,1.27.24.34.16.62.37.83.64s.38.55.49.86.19.61.23.91.06.56.06.78v4.05h-1.43Z"/>
  <path class="cls-3" d="M398.96,48.31c-.75,0-1.38-.17-1.9-.5-.52-.33-.92-.79-1.2-1.37-.28-.58-.42-1.24-.42-1.98,0-.75.15-1.42.43-1.99.28-.58.69-1.03,1.21-1.36.53-.33,1.16-.49,1.9-.49.8,0,1.48.2,2.04.59s.94.94,1.12,1.63l-1.4.41c-.14-.41-.37-.73-.68-.96s-.68-.34-1.09-.34c-.46,0-.84.11-1.14.33s-.52.52-.66.89-.22.81-.22,1.3c0,.75.18,1.36.52,1.82.34.46.84.69,1.51.69.45,0,.82-.1,1.1-.31.28-.21.5-.51.64-.9l1.43.34c-.24.71-.63,1.26-1.18,1.64-.55.38-1.21.57-2,.57Z"/>
  <path class="cls-3" d="M403.51,48.11v-9.72h1.26v5.25h.17v4.48h-1.43ZM408.63,48.11v-3.58c0-.28-.02-.57-.07-.87-.05-.3-.14-.58-.27-.83s-.32-.46-.56-.62c-.24-.16-.55-.24-.94-.24-.25,0-.49.04-.72.12-.22.08-.42.22-.59.4-.17.18-.3.43-.4.73-.1.3-.15.67-.15,1.1l-.88-.33c0-.66.12-1.25.37-1.75.25-.51.6-.9,1.07-1.18.46-.28,1.02-.43,1.68-.43.5,0,.93.08,1.27.24s.62.37.83.64.38.55.49.86.19.61.23.91c.04.3.06.56.06.78v4.05h-1.43Z"/>
  <path class="cls-3" d="M418.57,48.31c-.97,0-1.8-.21-2.48-.64-.68-.43-1.21-1.02-1.57-1.78-.36-.76-.54-1.64-.54-2.65s.18-1.89.54-2.65c.36-.76.89-1.35,1.57-1.78.68-.43,1.51-.64,2.48-.64s1.79.21,2.48.64,1.21,1.02,1.57,1.78c.36.76.54,1.64.54,2.65s-.18,1.89-.54,2.65c-.36.76-.88,1.35-1.57,1.78s-1.51.64-2.48.64ZM418.57,46.97c.69,0,1.26-.14,1.72-.46.46-.31.8-.75,1.03-1.31.23-.56.34-1.21.34-1.95s-.11-1.39-.34-1.95c-.23-.56-.57-.99-1.03-1.3s-1.03-.47-1.72-.47c-.69,0-1.26.14-1.72.45-.46.31-.8.75-1.03,1.31s-.35,1.21-.35,1.96c0,.74.11,1.39.34,1.95s.57.99,1.04,1.3c.46.31,1.04.47,1.72.47Z"/>
  <path class="cls-3" d="M426.48,48.11l-2.65-7.29h1.42l1.94,5.52,1.94-5.52h1.42l-2.65,7.29h-1.43Z"/>
  <path class="cls-3" d="M434.65,48.31c-.72,0-1.36-.16-1.91-.48s-.97-.76-1.28-1.33c-.3-.57-.46-1.23-.46-1.98,0-.8.15-1.49.45-2.07.3-.58.72-1.04,1.25-1.36.54-.32,1.16-.48,1.87-.48s1.38.17,1.9.52c.52.34.91.83,1.17,1.47.26.63.36,1.39.31,2.26h-1.41v-.51c0-.85-.17-1.47-.48-1.88-.31-.4-.79-.61-1.43-.61-.71,0-1.24.22-1.59.67-.36.45-.53,1.09-.53,1.93s.18,1.42.53,1.86c.36.44.87.66,1.54.66.44,0,.82-.1,1.14-.3.32-.2.57-.49.75-.86l1.38.44c-.28.65-.71,1.16-1.29,1.52-.58.36-1.22.54-1.92.54ZM432.05,44.86v-1.1h5.21v1.1h-5.21Z"/>
  <path class="cls-3" d="M439.47,48.11v-7.29h1.25v1.77l-.17-.23c.09-.23.21-.45.35-.64.14-.2.31-.36.5-.48.18-.13.39-.24.62-.31.23-.07.46-.12.7-.14.24-.02.47,0,.69.04v1.32c-.24-.06-.5-.08-.79-.05s-.56.12-.8.28c-.23.15-.41.33-.54.54s-.23.45-.29.71-.09.53-.09.82v3.68h-1.42Z"/>
  <path class="cls-3" d="M446.55,48.31c-.54,0-.99-.1-1.36-.3-.37-.2-.64-.47-.83-.8-.19-.33-.28-.69-.28-1.09,0-.37.07-.69.2-.97.13-.28.32-.52.58-.71.26-.2.57-.35.95-.48.32-.09.69-.18,1.1-.25.41-.07.84-.14,1.29-.2s.9-.13,1.35-.19l-.51.28c0-.57-.11-1-.36-1.27-.25-.28-.68-.42-1.29-.42-.38,0-.73.09-1.05.27-.32.18-.54.47-.67.88l-1.32-.4c.18-.63.52-1.12,1.03-1.49.51-.37,1.18-.55,2.02-.55.65,0,1.22.11,1.7.33.48.22.84.57,1.06,1.06.12.24.19.49.22.76.03.27.04.55.04.86v4.49h-1.25v-1.67l.24.22c-.3.56-.68.97-1.15,1.25-.47.27-1.04.41-1.72.41ZM446.8,47.16c.4,0,.74-.07,1.03-.21.29-.14.52-.32.7-.54.18-.22.29-.45.34-.69.08-.22.12-.46.13-.73.01-.27.02-.49.02-.65l.46.17c-.45.07-.85.13-1.22.18-.36.05-.69.11-.99.16s-.56.11-.79.19c-.19.07-.37.15-.52.24-.15.09-.27.21-.36.34-.09.13-.13.3-.13.49s.05.36.14.52c.09.16.24.29.43.38.19.09.44.14.74.14Z"/>
  <path class="cls-3" d="M452.31,48.11v-9.92h1.41v9.92h-1.41Z"/>
  <path class="cls-3" d="M455.88,48.11v-9.92h1.41v9.92h-1.41Z"/>
  <path class="cls-2" d="M490.07,67.25h-180c-3.31,0-6-2.69-6-6V25.25c0-3.31,2.69-6,6-6h180c3.31,0,6,2.69,6,6v36c0,3.31-2.69,6-6,6ZM310.07,20.25c-2.76,0-5,2.24-5,5v36c0,2.76,2.24,5,5,5h180c2.76,0,5-2.24,5-5V25.25c0-2.76-2.24-5-5-5h-180Z"/>
</svg>