<svg width="75" height="75" viewBox="0 0 75 75" fill="none" xmlns="http://www.w3.org/2000/svg">
    <path d="M13.2065 14.3101H6.60327V7.91366H11.919C12.6288 7.91366 13.2065 7.32531 13.2065 6.60258V1.18943H19.4879V7.91366C19.4879 11.447 16.6764 14.3101 13.2065 14.3101ZM6.60327 14.9657H0V21.3621H5.31577C6.02551 21.3621 6.60327 21.9505 6.60327 22.6732V28.0863H12.8847V21.3621C12.8847 17.8287 10.0731 14.9657 6.60327 14.9657ZM27.7006 14.6379C26.9909 14.6379 26.4131 14.0495 26.4131 13.3268V7.91366H20.1317V14.6379C20.1317 18.1713 22.9433 21.0343 26.4131 21.0343H33.0164V14.6379H27.7006ZM13.5284 28.0863V34.8106H19.8098V29.3974C19.8098 28.6747 20.3876 28.0863 21.0973 28.0863H26.4131V21.6899H19.8098C16.34 21.6899 13.5284 24.553 13.5284 28.0863Z" fill="#0FCB8C"/>
</svg>