<svg width="34" height="34" viewBox="0 0 34 34" fill="none" xmlns="http://www.w3.org/2000/svg">
    <path d="M13.7065 13.1207H7.10327V6.72423H12.419C13.1288 6.72423 13.7065 6.13588 13.7065 5.41314V0H19.9879V6.72423C19.9879 10.2576 17.1764 13.1207 13.7065 13.1207ZM7.10327 13.7762H0.5V20.1727H5.81577C6.52551 20.1727 7.10327 20.761 7.10327 21.4838V26.8969H13.3847V20.1727C13.3847 16.6393 10.5731 13.7762 7.10327 13.7762ZM28.2006 13.4485C27.4909 13.4485 26.9131 12.8601 26.9131 12.1374V6.72423H20.6317V13.4485C20.6317 16.9818 23.4433 19.8449 26.9131 19.8449H33.5164V13.4485H28.2006ZM14.0284 26.8969V33.6211H20.3098V28.208C20.3098 27.4853 20.8876 26.8969 21.5973 26.8969H26.9131V20.5005H20.3098C16.84 20.5005 14.0284 23.3635 14.0284 26.8969Z" fill="#0FCB8C"/>
</svg>