<svg width="293" height="36" viewBox="0 0 293 36" fill="none" xmlns="http://www.w3.org/2000/svg">
    <path d="M13.2065 14.3101H6.60327V7.91366H11.919C12.6288 7.91366 13.2065 7.32531 13.2065 6.60258V1.18943H19.4879V7.91366C19.4879 11.447 16.6764 14.3101 13.2065 14.3101ZM6.60327 14.9657H0V21.3621H5.31577C6.02551 21.3621 6.60327 21.9505 6.60327 22.6732V28.0863H12.8847V21.3621C12.8847 17.8287 10.0731 14.9657 6.60327 14.9657ZM27.7006 14.6379C26.9909 14.6379 26.4131 14.0495 26.4131 13.3268V7.91366H20.1317V14.6379C20.1317 18.1713 22.9433 21.0343 26.4131 21.0343H33.0164V14.6379H27.7006ZM13.5284 28.0863V34.8106H19.8098V29.3974C19.8098 28.6747 20.3876 28.0863 21.0973 28.0863H26.4131V21.6899H19.8098C16.34 21.6899 13.5284 24.553 13.5284 28.0863Z" fill="#0FCB8C"/>
    <path d="M269.764 -3.8147e-06H274.782V15.6871C276.522 11.3966 279.55 9.25139 283.866 9.25139C287.111 9.25139 289.437 10.1061 290.842 11.8156C292.281 13.5251 293 16.0894 293 19.5084V35.1955H287.981V19.9609C287.981 17.514 287.496 15.8212 286.526 14.8827C285.556 13.9106 284.184 13.4246 282.411 13.4246C279.868 13.4246 277.961 14.3128 276.69 16.0894C275.418 17.8659 274.782 20.6983 274.782 24.5866V35.1955H269.764V-3.8147e-06Z" fill="#0FCB8C"/>
    <path d="M239.679 22.6257C239.679 20.0782 240.164 17.7989 241.134 15.7877C242.138 13.7765 243.593 12.1844 245.5 11.0112C247.441 9.83798 249.783 9.25139 252.526 9.25139C256.307 9.25139 259.218 10.1899 261.259 12.067C263.333 13.9106 264.437 16.3743 264.571 19.4581H259.853C259.619 17.6145 258.933 16.1229 257.796 14.9832C256.658 13.8436 254.969 13.2737 252.727 13.2737C250.151 13.2737 248.177 14.0112 246.805 15.486C245.433 16.9274 244.747 19.3073 244.747 22.6257C244.747 25.9776 245.417 28.3743 246.755 29.8156C248.093 31.257 250.05 31.9776 252.627 31.9776C254.935 31.9776 256.692 31.3911 257.896 30.2179C259.134 29.0112 259.87 27.4357 260.104 25.4916H264.822C264.755 27.4022 264.236 29.162 263.266 30.7709C262.329 32.3464 260.957 33.6201 259.151 34.5922C257.344 35.5307 255.169 36 252.627 36C249.883 36 247.541 35.4134 245.601 34.2402C243.66 33.067 242.188 31.4749 241.184 29.4637C240.181 27.4525 239.679 25.1732 239.679 22.6257Z" fill="#0FCB8C"/>
    <path d="M211.784 10.0559H216.803V15.6871C218.543 11.3966 221.571 9.25139 225.887 9.25139C229.132 9.25139 231.457 10.1061 232.862 11.8156C234.301 13.5251 235.02 16.0894 235.02 19.5084V35.1955H230.002V19.9609C230.002 17.514 229.517 15.8212 228.546 14.8827C227.576 13.9106 226.204 13.4246 224.431 13.4246C221.888 13.4246 219.981 14.3128 218.71 16.0894C217.439 17.8659 216.803 20.6983 216.803 24.5866V35.1955H211.784V10.0559Z" fill="#0FCB8C"/>
    <path d="M194.74 36C190.491 36 187.313 34.7598 185.205 32.2793C183.097 29.7989 182.043 26.5642 182.043 22.5754C182.043 20.0614 182.512 17.7989 183.449 15.7877C184.385 13.7765 185.807 12.1844 187.714 11.0112C189.622 9.83798 191.964 9.25139 194.74 9.25139C197.317 9.25139 199.508 9.82122 201.315 10.9609C203.155 12.067 204.527 13.5922 205.43 15.5363C206.367 17.4804 206.835 19.676 206.835 22.1229C206.835 22.9609 206.802 23.5978 206.735 24.0335H186.962C187.162 27.0168 187.949 29.1452 189.32 30.419C190.692 31.6592 192.549 32.2793 194.891 32.2793C198.906 32.2793 201.332 30.7207 202.168 27.6033H206.785C206.484 29.8156 205.38 31.7765 203.473 33.486C201.599 35.162 198.688 36 194.74 36ZM202.017 20.3631C201.783 15.4357 199.374 12.9721 194.791 12.9721C192.516 12.9721 190.726 13.5419 189.421 14.6816C188.116 15.7877 187.313 17.6816 187.012 20.3631H202.017Z" fill="#0FCB8C"/>
    <path d="M151.155 1.75978H168.168C171.48 1.75978 173.923 2.51397 175.495 4.02235C177.068 5.53072 177.854 7.50838 177.854 9.9553C177.854 12.2346 177.218 14.0614 175.947 15.4358C174.675 16.7765 173.12 17.5978 171.28 17.8994C173.354 18.2011 175.043 19.0559 176.348 20.4637C177.653 21.838 178.306 23.7318 178.306 26.1452C178.306 28.9274 177.402 31.1397 175.596 32.7821C173.822 34.3911 171.229 35.1955 167.817 35.1955H151.155V1.75978ZM167.214 31.0223C169.155 31.0223 170.577 30.5195 171.48 29.514C172.417 28.4749 172.885 27.1508 172.885 25.5419C172.885 21.7207 170.694 19.81 166.311 19.81H156.324V31.0223H167.214ZM166.311 15.9888C168.419 15.9888 169.958 15.5698 170.928 14.7318C171.932 13.8939 172.434 12.6033 172.434 10.8603C172.434 9.15084 172.032 7.91061 171.229 7.13966C170.426 6.33519 169.004 5.93296 166.964 5.93296H156.324V15.9888H166.311Z" fill="#0FCB8C"/>
    <path d="M131.423 35.8492C128.847 35.8492 126.806 35.1955 125.3 33.8883C123.828 32.581 123.092 30.7709 123.092 28.4581C123.092 26.3799 123.678 24.7207 124.849 23.4804C126.053 22.2067 128.01 21.3352 130.72 20.8659L136.994 19.8101C138.231 19.6089 139.118 19.2905 139.653 18.8547C140.222 18.419 140.507 17.7654 140.507 16.8939C140.507 15.6536 140.088 14.7151 139.252 14.0782C138.449 13.4078 137.027 13.0726 134.986 13.0726C132.945 13.0726 131.406 13.4749 130.369 14.2793C129.365 15.0838 128.796 16.2905 128.663 17.8994H123.644C123.678 15.1844 124.665 13.0559 126.605 11.514C128.546 9.97206 131.272 9.20111 134.785 9.20111C138.165 9.20111 140.724 9.90503 142.464 11.3128C144.237 12.7207 145.124 14.6145 145.124 16.9944V29.4637C145.124 31.3073 145.207 33.2179 145.375 35.1955H140.808C140.607 33.2179 140.507 31.324 140.507 29.514C139.938 31.324 138.901 32.8324 137.395 34.0391C135.889 35.2458 133.899 35.8492 131.423 35.8492ZM132.477 31.9776C135.02 31.9776 136.994 31.1397 138.399 29.4637C139.804 27.7542 140.507 25.5922 140.507 22.9777V21.4693C139.904 21.905 139.252 22.257 138.549 22.5251C137.847 22.7598 137.01 22.9944 136.04 23.229L132.577 24.0335C131.005 24.4022 129.867 24.9218 129.165 25.5922C128.462 26.229 128.111 27.1173 128.111 28.257C128.111 29.4302 128.495 30.352 129.265 31.0223C130.068 31.6592 131.139 31.9776 132.477 31.9776Z" fill="#0FCB8C"/>
    <path d="M114.126 35.1955C112.119 35.1955 110.563 34.9441 109.459 34.4413C108.389 33.905 107.636 33.1173 107.201 32.0782C106.766 31.0056 106.548 29.581 106.548 27.8045V13.9274H101.781V11.3128L107 9.50279L109.058 4.3743H111.567V10.0559H119.597V13.9274H111.567V31.1732H119.095V35.1955H114.126Z" fill="#0FCB8C"/>
    <path d="M82.0264 26.7989C82.1268 28.4413 82.7625 29.7654 83.9335 30.7709C85.1045 31.7765 86.8442 32.2793 89.1528 32.2793C91.2606 32.2793 92.716 31.9609 93.5189 31.324C94.3219 30.6536 94.7234 29.6816 94.7234 28.4078C94.7234 27.3687 94.4056 26.5642 93.7699 25.9944C93.1677 25.3911 92.2141 24.9888 90.9093 24.7877L84.6863 23.8324C82.5115 23.4972 80.8387 22.743 79.6677 21.5698C78.5301 20.3966 77.9614 18.8547 77.9614 16.9441C77.9614 14.5307 78.8814 12.6369 80.7216 11.2626C82.5617 9.88827 85.1212 9.20111 88.4 9.20111C91.5784 9.20111 94.1379 9.93855 96.0784 11.4134C98.0189 12.8547 99.0728 14.7821 99.2401 17.1955H94.2216C94.0877 15.9553 93.519 14.933 92.5152 14.1285C91.5115 13.324 90.0896 12.9218 88.2494 12.9218C86.4093 12.9218 85.0376 13.257 84.1342 13.9274C83.2643 14.5642 82.8294 15.419 82.8294 16.4916C82.8294 17.3296 83.0803 18.0168 83.5822 18.5531C84.1175 19.0894 85.0208 19.4581 86.2922 19.6592L91.7123 20.4637C94.6565 20.8994 96.7141 21.7709 97.8851 23.0782C99.0561 24.352 99.6416 26.0447 99.6416 28.1564C99.6416 30.7709 98.7717 32.7318 97.032 34.0391C95.2922 35.3464 92.6156 36 89.0022 36C85.0543 36 82.1268 35.162 80.2197 33.486C78.3127 31.7765 77.3591 29.5475 77.3591 26.7989H82.0264Z" fill="#0FCB8C"/>
    <path d="M69.8842 35.1955L66.9232 27.2514H50.7634L47.8025 35.1955H42.5831L54.979 1.75978H62.7578L75.1537 35.1955H69.8842ZM52.3192 23.0782H65.3675L58.8433 5.43017L52.3192 23.0782Z" fill="#0FCB8C"/>
</svg>